<svg width="56" height="36" viewBox="0 0 56 36" fill="none" xmlns="http://www.w3.org/2000/svg">
<g clip-path="url(#clip0_158_447)">
<path d="M1.23393 33.4581C1.14991 33.4581 1.10645 33.4201 1.10645 33.344C1.10751 33.2586 1.13944 33.1764 1.19626 33.1131C1.22256 33.0812 1.25527 33.0553 1.29224 33.0372C1.3292 33.019 1.36958 33.009 1.41067 33.0078C1.47731 33.0078 1.50918 33.0546 1.50918 33.1511C1.50966 33.2303 1.4819 33.3071 1.43095 33.3674C1.40698 33.3965 1.37682 33.4198 1.3427 33.4355C1.30859 33.4512 1.27141 33.4589 1.23393 33.4581Z" fill="#1D1D1B"/>
<path d="M2.36677 33.4581C2.28275 33.4581 2.24219 33.4201 2.24219 33.344C2.24325 33.2586 2.27519 33.1764 2.33201 33.1131C2.3583 33.0812 2.39101 33.0553 2.42798 33.0372C2.46495 33.019 2.50532 33.009 2.54641 33.0078C2.61015 33.0078 2.64202 33.0546 2.64202 33.1511C2.64233 33.2298 2.61572 33.3062 2.56669 33.3674C2.54242 33.3969 2.51179 33.4204 2.47714 33.4361C2.44249 33.4518 2.40474 33.4593 2.36677 33.4581Z" fill="#1D1D1B"/>
<path d="M3.50248 33.4581C3.41846 33.4581 3.375 33.4201 3.375 33.344C3.37712 33.2582 3.41007 33.1762 3.46772 33.1131C3.49401 33.0812 3.52672 33.0553 3.56369 33.0372C3.60066 33.019 3.64103 33.009 3.68212 33.0078C3.74586 33.0078 3.77773 33.0546 3.77773 33.1511C3.77822 33.2303 3.75045 33.3071 3.6995 33.3674C3.67582 33.3969 3.64571 33.4204 3.61153 33.4361C3.57735 33.4518 3.54003 33.4593 3.50248 33.4581Z" fill="#1D1D1B"/>
<path d="M5.69886 33.2111C5.86863 33.1715 6.02844 33.0968 6.16824 32.9918C6.36807 32.8442 6.5569 32.682 6.73322 32.5065C6.77089 32.5065 6.79117 32.5445 6.79406 32.6264C6.79696 32.7082 6.72453 32.7696 6.58256 32.8866C6.43004 33.0114 6.26936 33.1257 6.1016 33.2286C5.98523 33.307 5.86207 33.3745 5.73363 33.4304C5.68801 33.4464 5.63997 33.4543 5.59166 33.4538C5.48736 33.4538 5.42941 33.4158 5.41782 33.3398C5.42958 33.2861 5.44507 33.2333 5.46418 33.1819C5.49025 33.1059 5.51343 33.0445 5.53082 33.0035L5.56559 32.91C5.54241 32.9334 5.48736 32.9977 5.40333 33.0971C5.33294 33.1807 5.25642 33.2589 5.17444 33.331C5.10618 33.3885 5.0288 33.4339 4.94555 33.4655H4.88761C4.86257 33.4682 4.83731 33.4682 4.81227 33.4655C4.50805 33.4655 4.35449 33.2286 4.35449 32.755C4.35449 32.2814 4.66741 31.8779 5.29613 31.5855C5.52982 31.4549 5.79112 31.3827 6.05814 31.375C6.15597 31.3771 6.25322 31.3909 6.34787 31.4159C6.45507 31.4452 6.50723 31.4919 6.50723 31.5621V31.6294C6.48714 31.6611 6.46487 31.6914 6.44059 31.72C6.30367 31.6383 6.15006 31.5893 5.9915 31.5767C5.89266 31.5801 5.79494 31.5989 5.70176 31.6323C5.57031 31.6731 5.44393 31.729 5.32511 31.7989C5.19126 31.8724 5.06591 31.9607 4.95135 32.0621C4.75236 32.2078 4.61729 32.4259 4.57469 32.6702C4.57588 32.6907 4.57588 32.7112 4.57469 32.7316C4.57359 32.7501 4.57359 32.7687 4.57469 32.7872C4.57469 33.0795 4.64712 33.2462 4.79489 33.2608C4.89056 33.249 4.98045 33.2082 5.05275 33.1439C5.42232 32.8151 5.73901 32.4305 5.9915 32.0036C6.01407 31.9619 6.04578 31.9259 6.08421 31.8983C6.12553 31.8815 6.17015 31.8745 6.21459 31.8779C6.27544 31.8779 6.30731 31.8779 6.30731 31.913C6.30177 31.9399 6.29402 31.9663 6.28413 31.9919C6.11898 32.334 5.92486 32.7433 5.70466 33.2257" fill="#1D1D1B"/>
<path d="M7.14464 31.9199C7.18231 31.841 7.24315 31.6831 7.33007 31.4375C7.41699 31.1919 7.48943 31.0048 7.54158 30.8703C7.6256 30.6101 7.70673 30.3703 7.78206 30.1569C7.85739 29.9435 7.95301 29.6687 8.0718 29.3412C8.0718 29.2973 8.12395 29.2739 8.19638 29.2739C8.20993 29.2725 8.22362 29.2742 8.23643 29.2788C8.24924 29.2835 8.26083 29.2911 8.27032 29.3009C8.27981 29.3108 8.28695 29.3227 8.29121 29.3357C8.29547 29.3488 8.29673 29.3627 8.29489 29.3763V29.3997C8.27285 29.5346 8.23692 29.6669 8.18769 29.7944C8.12105 29.9815 8.01675 30.2709 7.86898 30.6715L7.59953 31.3966C7.44887 31.8078 7.24895 32.3926 6.99978 33.1508C6.99978 33.1713 7.02006 33.1859 7.06642 33.1976C7.09142 33.1943 7.11674 33.1943 7.14175 33.1976C7.3131 33.1304 7.47037 33.0312 7.60532 32.9052C7.80524 32.7473 7.9588 32.6129 8.0718 32.5222C8.11815 32.5222 8.14133 32.5485 8.14133 32.607C8.14139 32.6376 8.13525 32.668 8.12329 32.6961C8.11134 32.7243 8.09381 32.7497 8.0718 32.7707C7.89725 32.9513 7.70284 33.1112 7.49233 33.2473C7.31637 33.3699 7.1092 33.4389 6.89547 33.4461C6.77958 33.4461 6.71584 33.4081 6.70714 33.3321C6.71005 33.3226 6.71005 33.3124 6.70714 33.3029C6.70714 33.2298 6.74481 33.1245 6.78248 32.9871C6.82014 32.8497 6.85781 32.7298 6.89257 32.6216C6.92734 32.5134 6.95052 32.4316 6.96791 32.3819L6.73612 32.6275C6.6434 32.724 6.59125 32.7766 6.58256 32.7824C6.56722 32.7847 6.553 32.7919 6.542 32.8029C6.51302 32.8029 6.49854 32.7649 6.49854 32.6889C6.49893 32.6442 6.51424 32.6009 6.542 32.5661C6.60878 32.495 6.67939 32.4276 6.7535 32.3643C6.85201 32.2766 6.93314 32.2035 6.99108 32.1421C7.04695 32.0825 7.09469 32.0157 7.13305 31.9433" fill="#1D1D1B"/>
<path d="M8.49178 31.9204C8.52945 31.8415 8.59029 31.6836 8.67721 31.438C8.76413 31.1924 8.83657 31.0053 8.88872 30.8708C8.97564 30.6106 9.05387 30.3708 9.1292 30.1574C9.20453 29.944 9.30014 29.6691 9.41893 29.3417C9.41893 29.2978 9.47109 29.2744 9.54642 29.2744C9.62175 29.2744 9.64203 29.3095 9.64203 29.3767V29.4001C9.61999 29.5351 9.58406 29.6674 9.53483 29.7948C9.46819 29.982 9.36388 30.2714 9.21902 30.672L8.94956 31.397C8.7989 31.8093 8.59609 32.394 8.34691 33.1513C8.34691 33.1718 8.37009 33.1864 8.41645 33.1981C8.44045 33.1943 8.46488 33.1943 8.48888 33.1981C8.6612 33.1311 8.81946 33.0319 8.95536 32.9057C9.15238 32.7478 9.30884 32.6133 9.41893 32.5227C9.46529 32.5227 9.48847 32.549 9.48847 32.6075C9.48853 32.6381 9.48239 32.6684 9.47043 32.6966C9.45848 32.7247 9.44095 32.7501 9.41893 32.7712C9.24439 32.9518 9.04997 33.1117 8.83946 33.2478C8.66351 33.3704 8.45633 33.4394 8.24261 33.4466C8.12671 33.4466 8.06297 33.4086 8.05428 33.3326C8.05702 33.323 8.05702 33.3129 8.05428 33.3033C8.07148 33.1966 8.09567 33.0911 8.12671 32.9876L8.23681 32.6221C8.27158 32.5139 8.29476 32.4321 8.31214 32.3823L8.08036 32.6279C8.03183 32.6822 7.98058 32.7339 7.9268 32.7829C7.91145 32.7852 7.89724 32.7923 7.88623 32.8034C7.85726 32.8034 7.84277 32.7654 7.84277 32.6893C7.84317 32.6446 7.85848 32.6014 7.88623 32.5665C7.92969 32.5198 7.99923 32.4525 8.09774 32.3648C8.19625 32.2771 8.27738 32.204 8.33532 32.1426C8.3921 32.0838 8.43994 32.0168 8.47729 31.9438" fill="#1D1D1B"/>
<path d="M11.2352 31.4219H11.4815C11.439 31.5421 11.3887 31.6593 11.3308 31.7727C11.2758 31.8897 11.2005 32.0388 11.1077 32.223C11.015 32.4072 10.9368 32.5592 10.8846 32.682C10.832 32.8056 10.7875 32.9326 10.7514 33.0621C10.7514 33.0621 10.7514 33.0796 10.7745 33.0972C10.8294 33.0732 10.8818 33.0438 10.931 33.0095C11.0324 32.9305 11.1889 32.7843 11.4033 32.5738C11.6177 32.3633 11.8176 32.1499 12.0117 31.9365C12.1527 31.7873 12.2816 31.627 12.3971 31.457C12.3971 31.457 12.4405 31.4336 12.5014 31.4336C12.5622 31.4336 12.6433 31.4511 12.6433 31.4803L12.3797 32.0651L12.0291 32.8165L11.7625 33.4012L12.1015 33.1089L12.5854 32.6995C12.7592 32.5534 12.849 32.4773 12.8606 32.4715C12.8722 32.4656 12.8867 32.4715 12.8983 32.5066C12.9107 32.5341 12.9167 32.5641 12.9157 32.5943C12.9186 32.6159 12.9162 32.6379 12.9086 32.6583C12.901 32.6787 12.8885 32.6969 12.8722 32.7112L12.5564 32.9714L12.1276 33.3837C11.9856 33.5065 11.8553 33.6264 11.7307 33.7433C11.6453 33.8193 11.5686 33.9047 11.5018 33.9977C11.4438 34.1088 11.3598 34.2901 11.2526 34.5123C11.1454 34.7345 11.0817 34.8806 11.0672 34.9245C11.0518 34.9641 11.0269 34.9993 10.9947 35.0268C10.957 35.062 10.9071 35.0809 10.8557 35.0795C10.8363 35.0811 10.8169 35.0786 10.7986 35.0721C10.7803 35.0656 10.7636 35.0552 10.7496 35.0416C10.7356 35.0281 10.7246 35.0117 10.7175 34.9935C10.7103 34.9753 10.707 34.9558 10.7079 34.9362C10.709 34.9167 10.709 34.8972 10.7079 34.8777C10.7079 34.8514 10.7079 34.8339 10.7079 34.8192C10.7679 34.608 10.8661 34.4097 10.9976 34.2345C11.1036 34.0642 11.2217 33.902 11.3511 33.7492C11.3873 33.7079 11.4176 33.6616 11.4409 33.6117C11.4612 33.565 11.4902 33.4977 11.5221 33.4071C11.5539 33.3165 11.5858 33.2463 11.609 33.1937C11.6322 33.141 11.7046 32.989 11.806 32.7639L12.0581 32.223H12.0436C11.9712 32.2931 11.8466 32.4189 11.6727 32.5972C11.4989 32.7756 11.354 32.9217 11.2381 33.0299C11.1282 33.1379 11.0089 33.2357 10.8818 33.3223C10.7693 33.3975 10.6416 33.4465 10.508 33.4656C10.4356 33.4656 10.3979 33.4305 10.3979 33.3632C10.4033 33.3012 10.417 33.2403 10.4385 33.182C10.5061 33.0143 10.5669 32.874 10.621 32.7609C10.676 32.644 10.7166 32.5651 10.7427 32.5153L10.5833 32.6791L10.4211 32.8457C10.4011 32.8398 10.3817 32.8319 10.3631 32.8223C10.3516 32.8149 10.3422 32.8045 10.3361 32.7921C10.33 32.7798 10.3273 32.766 10.3284 32.7522C10.3362 32.6785 10.3714 32.6106 10.4269 32.5621C10.4732 32.5124 10.5659 32.4159 10.7166 32.2698C10.8226 32.1737 10.9196 32.068 11.0063 31.954C11.0552 31.8849 11.096 31.8103 11.128 31.7318L11.2439 31.4657" fill="#1D1D1B"/>
<path d="M13.7246 31.2988C13.7543 31.2936 13.7847 31.2936 13.8144 31.2988C13.8897 31.2988 13.9245 31.331 13.9245 31.3953C13.9245 31.4596 13.9013 31.4918 13.852 31.5006C13.554 31.5752 13.2915 31.7532 13.1103 32.0034C12.9506 32.2227 12.8606 32.4858 12.8525 32.7578C12.8525 32.8747 12.8785 32.9624 12.8901 33.015C12.9028 33.0693 12.9287 33.1196 12.9654 33.1612C12.9885 33.1862 13.0163 33.2063 13.0471 33.2204C13.078 33.2344 13.1113 33.2422 13.1451 33.2431C13.2687 33.2252 13.3845 33.1713 13.4783 33.0881C13.5825 33.0155 13.6728 32.9243 13.7448 32.8192C13.6646 32.7003 13.6221 32.5595 13.6231 32.4157C13.632 32.2249 13.6762 32.0375 13.7535 31.8631C13.7784 31.7856 13.8267 31.718 13.8917 31.6698C13.9567 31.6215 14.035 31.595 14.1157 31.5941C14.2055 31.5941 14.2606 31.6204 14.2837 31.676C14.3106 31.7539 14.3224 31.8363 14.3185 31.9186C14.3186 32.0357 14.3011 32.152 14.2664 32.2636C14.2365 32.3649 14.1967 32.4628 14.1476 32.556L14.0491 32.7402H14.0954L14.1505 32.7578C14.2244 32.7529 14.2961 32.7298 14.3591 32.6905C14.4309 32.6491 14.4988 32.6012 14.5619 32.5473L14.6633 32.4625C14.6778 32.4625 14.6865 32.4946 14.6865 32.556C14.6857 32.6193 14.6662 32.6809 14.6306 32.7329C14.595 32.785 14.5449 32.8252 14.4866 32.8484C14.3655 32.917 14.231 32.9579 14.0925 32.9683L13.9216 32.9332C13.8035 33.0714 13.667 33.1924 13.5159 33.2928C13.3933 33.3706 13.2523 33.4141 13.1074 33.4185C13.0407 33.4225 12.9741 33.4102 12.9131 33.3827C12.8521 33.3552 12.7985 33.3134 12.7568 33.2606C12.6637 33.0967 12.6223 32.908 12.638 32.7198V32.6613C12.6405 32.3913 12.7323 32.1299 12.8988 31.9186C13.0283 31.74 13.1906 31.5882 13.3769 31.4713C13.4906 31.4021 13.6098 31.3424 13.7332 31.293L13.7246 31.2988ZM13.9042 32.635C13.9708 32.5082 14.027 32.3762 14.0722 32.2403C14.1116 32.1353 14.135 32.0249 14.1418 31.9128C14.1418 31.8456 14.1418 31.8134 14.1041 31.8134C14.0664 31.8134 13.9766 31.8719 13.9187 31.9917C13.8625 32.1161 13.8301 32.25 13.8231 32.3864C13.8279 32.4751 13.8559 32.5608 13.9042 32.635Z" fill="#1D1D1B"/>
<path d="M16.6221 31.3984H16.6482H16.7438H16.822C16.7612 31.5505 16.6598 31.7756 16.5178 32.065C16.3758 32.3545 16.2744 32.565 16.2281 32.6878C16.1643 32.8308 16.1082 32.9772 16.06 33.1264C16.06 33.1468 16.06 33.1644 16.1064 33.1731C16.1515 33.1578 16.1952 33.1382 16.2368 33.1147C16.3936 33.0201 16.5436 32.9146 16.6858 32.7989C16.8597 32.6615 16.9901 32.5533 17.0799 32.4744C17.0799 32.4744 17.1031 32.5065 17.1031 32.5679C17.1067 32.6237 17.0966 32.6795 17.0739 32.7305C17.0512 32.7815 17.0164 32.826 16.9727 32.8603C16.8387 32.9664 16.6984 33.064 16.5526 33.1527L16.3295 33.2989C16.2608 33.3445 16.188 33.3837 16.1122 33.4158C16.0432 33.4444 15.9694 33.4593 15.8949 33.4597C15.8759 33.4613 15.8568 33.4589 15.8388 33.4528C15.8207 33.4466 15.8041 33.4368 15.79 33.4239C15.7759 33.4111 15.7645 33.3954 15.7567 33.3779C15.7488 33.3604 15.7445 33.3415 15.7442 33.3223C15.7677 33.1996 15.8046 33.08 15.8543 32.9656C15.9036 32.8486 15.9731 32.7083 16.06 32.5416C16.1469 32.375 16.2078 32.2492 16.2483 32.1469C16.0919 32.3106 15.9586 32.4393 15.8427 32.5562C15.7268 32.6732 15.6138 32.7755 15.4921 32.8808C15.3704 32.986 15.2575 33.0825 15.1387 33.1731C15.0199 33.2638 14.9156 33.3398 14.8142 33.4041C14.7471 33.4453 14.6695 33.4656 14.5911 33.4626C14.5012 33.4626 14.4578 33.4363 14.4578 33.3837C14.4564 33.37 14.4564 33.3563 14.4578 33.3427C14.4598 33.3311 14.4598 33.3192 14.4578 33.3076C14.4578 33.2813 14.5215 33.1468 14.62 32.9012C14.7185 32.6556 14.7823 32.5095 14.8113 32.4568L14.6461 32.6644C14.6005 32.7265 14.5434 32.7791 14.4781 32.8194C14.4404 32.8194 14.423 32.7901 14.423 32.7287C14.4219 32.7019 14.4262 32.6751 14.4357 32.65C14.4452 32.6248 14.4596 32.6019 14.4781 32.5826L14.7214 32.3399C14.8315 32.2288 14.9127 32.1498 14.9619 32.0972C15.0026 32.0488 15.0376 31.9958 15.0662 31.9393C15.1058 31.8662 15.1416 31.7911 15.1734 31.7142L15.269 31.5066C15.298 31.4598 15.3241 31.4364 15.3502 31.4364C15.469 31.4364 15.5269 31.4364 15.5269 31.4598C15.495 31.5957 15.4494 31.728 15.3907 31.8545C15.3299 31.989 15.2488 32.1469 15.1503 32.334C15.0517 32.5212 14.9735 32.6615 14.9243 32.7609C14.8711 32.8686 14.8256 32.98 14.7881 33.0942C14.7881 33.1088 14.8055 33.1234 14.8344 33.1351C14.8786 33.1162 14.9213 33.0937 14.9619 33.0679C15.0952 32.9685 15.2517 32.8369 15.4342 32.6732C15.6167 32.5095 15.7906 32.3457 15.9586 32.1732C16.1267 32.0007 16.2483 31.8516 16.37 31.72L16.5149 31.5417C16.5315 31.5188 16.5499 31.4972 16.57 31.4774L16.6308 31.4364" fill="#1D1D1B"/>
<path d="M18.4849 32.0241C18.5284 31.9524 18.5634 31.8759 18.5892 31.796C18.6237 31.6916 18.6735 31.5931 18.737 31.5036C18.7609 31.471 18.7925 31.4448 18.8289 31.4274C18.8653 31.4101 18.9054 31.4021 18.9456 31.4042C18.9638 31.4077 18.9801 31.4175 18.9918 31.4319C19.0035 31.4464 19.0097 31.4645 19.0094 31.4832C19.001 31.5274 18.9854 31.5699 18.963 31.6089L18.9109 31.7083C18.8616 31.8136 18.8008 31.9422 18.7341 32.0913L18.5487 32.5065C18.4946 32.6293 18.4395 32.7492 18.3835 32.8661H18.4038C18.4849 32.7813 18.6182 32.6497 18.7979 32.4685C18.9775 32.2872 19.1832 32.0972 19.4034 31.8837C19.5583 31.7333 19.7271 31.5982 19.9075 31.4803L19.9771 31.4364C20.0071 31.4149 20.0391 31.3963 20.0727 31.3808C20.0981 31.3689 20.1258 31.3629 20.1538 31.3633C20.1888 31.3635 20.2226 31.3759 20.2494 31.3984C20.2642 31.4089 20.2761 31.423 20.2842 31.4393C20.2923 31.4556 20.2963 31.4737 20.2958 31.4919C20.2829 31.5733 20.2554 31.6515 20.2147 31.7229C20.1596 31.834 20.1277 31.9042 20.119 31.9305C19.8525 32.5299 19.6815 32.9187 19.6033 33.1C19.5965 33.1193 19.5877 33.1379 19.5772 33.1556C19.5772 33.1556 19.5946 33.176 19.6236 33.1906C19.6418 33.1803 19.6613 33.1725 19.6815 33.1672C19.8296 33.0864 19.9677 32.9883 20.093 32.8749L20.5681 32.5065H20.5913C20.6145 32.5065 20.6261 32.524 20.6261 32.562C20.6272 32.6108 20.6163 32.659 20.5942 32.7024C20.5658 32.7468 20.5295 32.7855 20.487 32.8164C20.3347 32.9477 20.174 33.0688 20.0061 33.1789C19.8678 33.2773 19.7179 33.3579 19.5599 33.4187C19.5195 33.4249 19.4785 33.4249 19.4382 33.4187C19.3397 33.4187 19.2875 33.3807 19.2759 33.3047C19.3172 33.1481 19.3695 32.9947 19.4324 32.8456C19.4961 32.6936 19.5686 32.5533 19.6468 32.3866C19.725 32.22 19.8148 32.0533 19.9191 31.8457C19.9295 31.8217 19.9354 31.7959 19.9365 31.7697C19.9365 31.7551 19.9365 31.7463 19.9191 31.7463C19.8905 31.751 19.8635 31.7631 19.8409 31.7814C19.6934 31.8815 19.553 31.9919 19.4208 32.1118C19.2904 32.2346 19.1513 32.372 19.0094 32.524L18.5719 32.9918C18.4212 33.1497 18.2821 33.2842 18.1575 33.3982C18.1311 33.4158 18.0991 33.4231 18.0677 33.4187C18.0011 33.4187 17.9692 33.3924 17.9692 33.3397V33.293C18.033 33.1322 18.1373 32.8573 18.2792 32.4685L18.1199 32.641C18.0768 32.6901 18.0303 32.736 17.9808 32.7784C17.9431 32.7784 17.9229 32.7258 17.9229 32.6614C17.9272 32.6261 17.9387 32.592 17.9567 32.5613C17.9746 32.5307 17.9986 32.504 18.0272 32.4831C18.0677 32.4334 18.1431 32.3603 18.2445 32.2609C18.3354 32.1791 18.4197 32.0901 18.4965 31.9948" fill="#1D1D1B"/>
<path d="M22.2249 32.5174C22.2481 32.5174 22.2597 32.5466 22.2597 32.6051C22.2597 32.6357 22.2536 32.666 22.2416 32.6942C22.2297 32.7223 22.2121 32.7477 22.1901 32.7688C22.0366 32.8975 21.9004 33.0115 21.7671 33.105C21.625 33.2069 21.4713 33.2913 21.3093 33.3565C21.1303 33.4313 20.9382 33.4691 20.7444 33.4676C20.6726 33.4677 20.6023 33.4471 20.5417 33.4083C20.4811 33.3694 20.4328 33.3139 20.4025 33.2483C20.3335 33.0696 20.3019 32.8785 20.3098 32.6869C20.3227 32.4245 20.4322 32.1764 20.6169 31.9911C20.8113 31.7649 21.05 31.5817 21.318 31.4531C21.4242 31.4084 21.5366 31.3808 21.6512 31.3713C21.743 31.3687 21.8332 31.3953 21.9091 31.4473C21.943 31.4723 21.9703 31.5054 21.9885 31.5437C22.0067 31.582 22.0153 31.6242 22.0134 31.6666C22.0216 31.8211 21.9862 31.9748 21.9113 32.1099C21.8364 32.2449 21.7252 32.3558 21.5904 32.4297C21.2715 32.6006 20.9141 32.6852 20.5531 32.6752C20.5586 32.7228 20.5586 32.7709 20.5531 32.8185C20.5504 32.9387 20.5859 33.0565 20.6545 33.1547C20.6972 33.1953 20.748 33.2262 20.8034 33.2454C20.8589 33.2645 20.9178 33.2715 20.9761 33.2658C21.1693 33.2417 21.3545 33.1737 21.5179 33.067C21.7702 32.9028 22.0095 32.719 22.2336 32.5174H22.2249ZM20.6111 32.4735H20.7009C20.7298 32.4716 20.7589 32.4716 20.7878 32.4735C20.9418 32.461 21.0932 32.4255 21.2369 32.3683C21.3868 32.3124 21.5224 32.2235 21.6338 32.108C21.6866 32.0571 21.7284 31.9958 21.7568 31.9279C21.7852 31.86 21.7996 31.787 21.799 31.7133C21.799 31.6022 21.7381 31.5467 21.6194 31.5467C21.4301 31.5678 21.253 31.651 21.1152 31.7835C20.8831 31.948 20.707 32.1808 20.6111 32.4501" fill="#1D1D1B"/>
<path d="M23.8821 32.5174C23.9024 32.5174 23.914 32.5466 23.914 32.6051C23.914 32.6357 23.9079 32.666 23.8959 32.6942C23.884 32.7223 23.8665 32.7477 23.8444 32.7688C23.6938 32.8975 23.5547 33.0115 23.4243 33.105C23.2808 33.2063 23.1262 33.2907 22.9636 33.3565C22.7856 33.4314 22.5944 33.4692 22.4016 33.4676C22.3294 33.4679 22.2586 33.4474 22.1975 33.4086C22.1365 33.3698 22.0876 33.3142 22.0568 33.2483C21.9878 33.0696 21.9562 32.8785 21.9641 32.6869C21.977 32.4239 22.0877 32.1754 22.2741 31.9911C22.4668 31.7643 22.7047 31.581 22.9723 31.4531C23.0785 31.4084 23.1909 31.3808 23.3055 31.3713C23.3973 31.3687 23.4875 31.3953 23.5634 31.4473C23.5974 31.4723 23.6247 31.5054 23.6428 31.5437C23.661 31.582 23.6696 31.6242 23.6677 31.6666C23.6751 31.822 23.6384 31.9764 23.5619 32.1115C23.4854 32.2467 23.3724 32.357 23.236 32.4297C22.9172 32.601 22.5598 32.6856 22.1987 32.6752C22.2042 32.7228 22.2042 32.7709 22.1987 32.8185C22.196 32.9387 22.2316 33.0565 22.3002 33.1547C22.3433 33.1955 22.3945 33.2266 22.4505 33.2457C22.5065 33.2649 22.5658 33.2717 22.6247 33.2658C22.8169 33.2417 23.0012 33.1737 23.1636 33.067C23.4159 32.9028 23.6551 32.719 23.8792 32.5174H23.8821ZM22.2567 32.4735H22.3465C22.3755 32.4716 22.4045 32.4716 22.4334 32.4735C22.5875 32.461 22.7388 32.4255 22.8825 32.3683C23.0329 32.3118 23.1693 32.223 23.2824 32.108C23.3343 32.0566 23.3754 31.9952 23.4033 31.9274C23.4312 31.8595 23.4452 31.7868 23.4446 31.7133C23.4446 31.6022 23.3838 31.5467 23.2679 31.5467C23.0776 31.5672 22.8994 31.6504 22.7608 31.7835C22.5287 31.948 22.3527 32.1808 22.2567 32.4501" fill="#1D1D1B"/>
<path d="M25.2621 31.3981C25.3288 31.1671 25.3954 30.9595 25.462 30.7724C25.5287 30.5853 25.6011 30.404 25.6851 30.2169C25.7692 30.0297 25.8677 29.8397 25.9749 29.6321C26.0221 29.5424 26.0827 29.4606 26.1545 29.3895C26.2016 29.3358 26.2665 29.3015 26.337 29.293C26.4153 29.293 26.4558 29.3719 26.4558 29.5298C26.4481 29.6696 26.4287 29.8085 26.3979 29.945C26.3554 30.1399 26.2858 30.3825 26.1893 30.673C26.0744 31.0091 25.9399 31.3381 25.7865 31.6583C25.6071 32.0425 25.3999 32.4129 25.1665 32.7664C25.1665 32.8248 25.1665 32.9067 25.1375 33.0149C25.1086 33.1231 25.181 33.2078 25.2708 33.2166C25.3652 33.1919 25.4551 33.1525 25.5374 33.0997C25.6304 33.0439 25.7186 32.9803 25.801 32.9096L26.0676 32.6845C26.1835 32.5559 26.2617 32.4945 26.3023 32.4945C26.3428 32.4945 26.3254 32.5354 26.3254 32.6143C26.3249 32.6635 26.3075 32.7111 26.2762 32.7488C26.244 32.7901 26.207 32.8274 26.1661 32.8599L26.0328 32.9681C25.8937 33.085 25.7894 33.1728 25.717 33.2283C25.6331 33.2914 25.5428 33.3454 25.4475 33.3891C25.3514 33.4384 25.2453 33.4644 25.1375 33.4651C25.1022 33.4693 25.0665 33.4619 25.0357 33.444C25.0049 33.4261 24.9807 33.3987 24.9666 33.3657C24.9369 33.281 24.9194 33.1924 24.9144 33.1026C24.9178 33.0735 24.9178 33.044 24.9144 33.0149C24.8913 33.0295 24.8217 33.088 24.7116 33.1845C24.6221 33.2631 24.525 33.3327 24.4219 33.392C24.34 33.4332 24.2497 33.4543 24.1582 33.4534C23.8685 33.4534 23.7178 33.2605 23.7178 32.8687C23.7157 32.606 23.7859 32.3479 23.9206 32.1231C24.0558 31.8985 24.2465 31.7131 24.474 31.5852C24.7095 31.4526 24.9751 31.3841 25.2447 31.3864L25.2621 31.3981ZM25.1636 31.5735C25.1262 31.5538 25.0839 31.5456 25.0419 31.5501C24.9251 31.5565 24.8112 31.5895 24.7087 31.6466C24.5702 31.715 24.4431 31.8047 24.3321 31.9126C24.2152 32.0266 24.1174 32.1589 24.0423 32.3044C23.9653 32.4472 23.9236 32.6067 23.9206 32.7693C23.9206 33.0763 24.0018 33.2342 24.1669 33.2459C24.3321 33.2575 24.6247 33.0529 24.9202 32.702C24.9713 32.5627 25.0092 32.4188 25.0332 32.2722C25.0941 32.0062 25.1375 31.7723 25.1723 31.5735H25.1636ZM25.2389 32.2722C25.4093 32.0252 25.553 31.7606 25.6677 31.4828C25.8137 31.1454 25.9405 30.7999 26.0473 30.4478C26.1346 30.1848 26.1948 29.9134 26.2269 29.638C26.0763 29.8623 25.9463 30.1001 25.8387 30.3484C25.6984 30.6602 25.5774 30.9805 25.4765 31.3074C25.3766 31.6195 25.2973 31.9379 25.2389 32.2606V32.2722Z" fill="#1D1D1B"/>
<path d="M28.0895 31.3707C28.1272 31.2537 28.1851 31.0783 28.2692 30.8181C28.3532 30.5579 28.443 30.3035 28.5386 30.0287C28.5983 29.8447 28.6679 29.6641 28.7472 29.4878L28.8602 29.3094C28.8704 29.2993 28.8827 29.2916 28.8963 29.287C28.9099 29.2825 28.9243 29.2811 28.9385 29.2831C28.9819 29.2831 29.0051 29.3358 29.0051 29.4001C29.0079 29.4292 29.0079 29.4586 29.0051 29.4878C29.0031 29.5189 29.0031 29.5502 29.0051 29.5813C28.8936 29.9784 28.7601 30.3689 28.6053 30.7508C28.3677 31.3736 28.1736 31.8736 28.0258 32.2507C27.9476 32.4466 27.852 32.7097 27.7361 33.0401C27.6202 33.3705 27.4811 33.6746 27.3855 33.9669C27.318 34.1581 27.2628 34.3534 27.2203 34.5517C27.2203 34.5722 27.2203 34.6014 27.2203 34.6336C27.2184 34.6559 27.2184 34.6784 27.2203 34.7008C27.2203 34.7797 27.2435 34.8207 27.2928 34.8207C27.342 34.8207 27.4 34.7797 27.455 34.7008C27.5492 34.569 27.6334 34.4302 27.7071 34.2856C27.7663 34.1685 27.8148 34.0462 27.852 33.9202C27.8838 33.8032 27.9157 33.6658 27.9447 33.5079C27.9736 33.35 27.9997 33.198 28.0229 33.0577C28.1315 33.012 28.237 32.9593 28.3387 32.8998C28.5159 32.7947 28.6811 32.6701 28.8313 32.5285C28.8399 32.5175 28.8523 32.5102 28.866 32.508C28.8979 32.508 28.9124 32.5402 28.9124 32.6045C28.9119 32.6571 28.8911 32.7075 28.8544 32.7448C28.6529 32.9122 28.4356 33.0591 28.2054 33.1834C28.2007 33.3716 28.1764 33.5587 28.133 33.7418C28.0898 33.9342 28.0317 34.1229 27.9592 34.3061C27.9051 34.4497 27.8341 34.5861 27.7476 34.7125C27.7136 34.7708 27.6717 34.8239 27.6231 34.8704C27.562 34.9415 27.4895 35.0018 27.4087 35.0487C27.348 35.0699 27.2845 35.0818 27.2203 35.0838C27.0784 35.0838 27.0088 34.9756 27.0088 34.7651C27.0049 34.697 27.0049 34.6286 27.0088 34.5605C27.0391 34.3837 27.0798 34.209 27.1305 34.0371C27.1856 33.8442 27.2667 33.6044 27.3681 33.315C27.4695 33.0255 27.5941 32.6805 27.739 32.28L27.4492 32.5723C27.3723 32.6567 27.289 32.7349 27.2 32.8062C27.1682 32.8062 27.1537 32.7536 27.1537 32.663C27.1503 32.6476 27.1503 32.6316 27.1537 32.6162L27.2029 32.5519L27.2435 32.5051C27.2763 32.468 27.3662 32.3774 27.513 32.2332C27.6299 32.1221 27.7411 32.005 27.8462 31.8823C27.8741 31.8459 27.8966 31.8055 27.9128 31.7625C27.9389 31.7069 27.9678 31.6426 27.9968 31.5636C28.0258 31.4847 28.0548 31.4145 28.0808 31.3561" fill="#1D1D1B"/>
<path d="M29.7031 31.2998C29.7328 31.2946 29.7632 31.2946 29.7929 31.2998C29.8683 31.2998 29.903 31.332 29.903 31.3963C29.903 31.4606 29.8798 31.4928 29.8306 31.5016C29.5326 31.5763 29.27 31.7543 29.0889 32.0045C28.9291 32.2237 28.8392 32.4868 28.831 32.7588C28.831 32.8757 28.8571 32.9634 28.8687 33.0161C28.8826 33.0699 28.9084 33.1198 28.944 33.1622C28.9671 33.1872 28.9948 33.2073 29.0257 33.2214C29.0565 33.2355 29.0898 33.2432 29.1236 33.2441C29.247 33.2301 29.3637 33.1803 29.4597 33.1008C29.5639 33.0282 29.6543 32.937 29.7263 32.8319C29.646 32.713 29.6036 32.5722 29.6046 32.4284C29.6135 32.2376 29.6577 32.0502 29.735 31.8758C29.7598 31.7984 29.8082 31.7307 29.8731 31.6825C29.9381 31.6342 30.0165 31.6078 30.0971 31.6068C30.187 31.6068 30.2449 31.6331 30.2652 31.6887C30.292 31.7666 30.3038 31.849 30.3 31.9314C30.3001 32.0484 30.2825 32.1647 30.2478 32.2764C30.2192 32.378 30.1793 32.4761 30.129 32.5687L30.0305 32.7529H30.0769L30.1319 32.7705C30.2059 32.7656 30.2775 32.7426 30.3405 32.7032C30.4128 32.6626 30.4807 32.6146 30.5433 32.56L30.6447 32.4752C30.6447 32.4752 30.6679 32.5073 30.6679 32.5687C30.6671 32.632 30.6477 32.6936 30.6121 32.7456C30.5765 32.7977 30.5263 32.8379 30.468 32.8611C30.3469 32.9297 30.2124 32.9706 30.074 32.981L29.903 32.9459C29.7843 33.0835 29.6479 33.2044 29.4974 33.3055C29.3747 33.3834 29.2337 33.4268 29.0889 33.4312C29.0222 33.4352 28.9555 33.4229 28.8945 33.3954C28.8335 33.3679 28.7799 33.3261 28.7383 33.2734C28.6451 33.1094 28.6037 32.9207 28.6195 32.7325V32.674C28.6167 32.4024 28.7044 32.1377 28.8687 31.9226C28.9996 31.7453 29.1616 31.5936 29.3467 31.4753C29.4605 31.406 29.5797 31.3464 29.7031 31.2969V31.2998ZM29.874 32.6389C29.9406 32.5122 29.9968 32.3802 30.0421 32.2442C30.0814 32.1392 30.1049 32.0288 30.1116 31.9167C30.1116 31.8495 30.1116 31.8173 30.074 31.8173C30.0363 31.8173 29.9465 31.8758 29.8914 31.9957C29.833 32.1194 29.7995 32.2535 29.7929 32.3904C29.7992 32.4787 29.827 32.5641 29.874 32.6389Z" fill="#1D1D1B"/>
<path d="M31.1287 31.5841C31.0948 31.5556 31.0686 31.519 31.0524 31.4776C31.0362 31.4362 31.0306 31.3914 31.036 31.3473C31.0333 31.3047 31.0442 31.2624 31.0672 31.2266C31.0901 31.1908 31.1239 31.1634 31.1634 31.1484C31.1739 31.1507 31.1848 31.1507 31.1953 31.1484H31.2272C31.2967 31.1484 31.3402 31.1689 31.3547 31.2128C31.3795 31.288 31.3979 31.3653 31.4097 31.4437H31.5546C31.8443 31.4437 31.9776 31.5461 31.9776 31.7361C31.9767 31.7967 31.9669 31.8568 31.9486 31.9145C31.921 31.9932 31.8891 32.0703 31.853 32.1454L31.7777 32.315L31.6096 32.6863L31.4561 33.0313C31.4349 33.076 31.4194 33.1231 31.4097 33.1717L31.4387 33.195C31.5386 33.1631 31.6311 33.1114 31.711 33.043C31.8443 32.9524 31.966 32.8559 32.0848 32.7506L32.3398 32.5401L32.3658 32.5138C32.3702 32.5087 32.3755 32.5045 32.3814 32.5014C32.3874 32.4984 32.3939 32.4967 32.4006 32.4963C32.4267 32.4963 32.4383 32.4963 32.4383 32.5284V32.6161C32.4379 32.6439 32.4308 32.6712 32.4177 32.6956C32.4045 32.7201 32.3858 32.7409 32.3629 32.7565C32.1717 32.9202 32.0269 33.0489 31.9312 33.119C31.8095 33.2118 31.6795 33.293 31.543 33.3617C31.4555 33.4165 31.356 33.4486 31.2533 33.4553C31.2166 33.4566 31.1807 33.4447 31.152 33.4216C31.1233 33.3986 31.1037 33.3659 31.0968 33.3295C31.1287 33.2301 31.1663 33.1249 31.2098 33.0196C31.2533 32.9144 31.3083 32.777 31.3836 32.6103L31.5749 32.1688C31.6299 32.0402 31.6763 31.9232 31.711 31.818C31.7101 31.8063 31.7101 31.7946 31.711 31.7829C31.7134 31.7713 31.7134 31.7594 31.711 31.7478C31.711 31.6718 31.6415 31.6338 31.4995 31.6338C31.4629 31.6302 31.4261 31.6302 31.3894 31.6338H31.2996C31.0599 32.0492 30.7677 32.4316 30.4304 32.7711C30.3899 32.7711 30.3725 32.7214 30.3725 32.6542C30.3704 32.6258 30.3764 32.5973 30.3899 32.5723L30.4739 32.4758C30.6425 32.3194 30.7913 32.1426 30.9172 31.9495C31.0002 31.82 31.0766 31.6863 31.1461 31.549" fill="#1D1D1B"/>
<path d="M35.1791 32.5174C35.2023 32.5174 35.2139 32.5466 35.2139 32.6051C35.2139 32.6357 35.2078 32.666 35.1959 32.6942C35.1839 32.7223 35.1664 32.7477 35.1444 32.7688C34.9908 32.8975 34.8546 33.0115 34.7213 33.105C34.5782 33.2069 34.4235 33.2913 34.2607 33.3565C34.0827 33.4317 33.8915 33.4695 33.6986 33.4676C33.6267 33.4681 33.5563 33.4476 33.4956 33.4087C33.435 33.3698 33.3868 33.3141 33.3567 33.2483C33.2852 33.0703 33.2526 32.8788 33.2611 32.6869C33.2751 32.4242 33.3856 32.1761 33.5711 31.9911C33.7649 31.7642 34.0038 31.581 34.2723 31.4531C34.3782 31.4078 34.4907 31.3801 34.6054 31.3713C34.6963 31.3687 34.7856 31.3953 34.8604 31.4473C34.8947 31.4722 34.9224 31.5052 34.9411 31.5434C34.9598 31.5817 34.9689 31.6239 34.9676 31.6666C34.9751 31.8224 34.9381 31.9771 34.8611 32.1123C34.784 32.2476 34.6702 32.3577 34.533 32.4297C34.2153 32.601 33.8588 32.6857 33.4987 32.6752C33.5045 32.7228 33.5045 32.7709 33.4987 32.8185C33.4968 32.939 33.5333 33.0569 33.603 33.1547C33.6453 33.1958 33.696 33.227 33.7516 33.2462C33.8071 33.2654 33.8662 33.2721 33.9246 33.2658C34.1176 33.2412 34.3027 33.1733 34.4664 33.067C34.7177 32.9013 34.9568 32.7177 35.182 32.5174H35.1791ZM33.5595 32.4735H33.6464C33.6763 32.4716 33.7063 32.4716 33.7362 32.4735C33.8902 32.4606 34.0415 32.4252 34.1853 32.3683C34.3349 32.3118 34.4703 32.2229 34.5823 32.108C34.6346 32.0569 34.676 31.9955 34.7039 31.9276C34.7318 31.8598 34.7456 31.7868 34.7445 31.7133C34.7445 31.6022 34.6866 31.5467 34.5678 31.5467C34.3786 31.5678 34.2015 31.651 34.0636 31.7835C33.8315 31.948 33.6555 32.1808 33.5595 32.4501" fill="#1D1D1B"/>
<path d="M35.4981 32.0221C35.5389 31.9494 35.5728 31.8731 35.5995 31.794C35.634 31.6896 35.6838 31.5911 35.7473 31.5017C35.7715 31.4693 35.8032 31.4434 35.8395 31.4261C35.8758 31.4088 35.9158 31.4006 35.9559 31.4023C35.9743 31.4051 35.991 31.4148 36.0028 31.4294C36.0146 31.4439 36.0206 31.4624 36.0196 31.4812C36.0128 31.5258 35.997 31.5686 35.9733 31.6069C35.9414 31.6654 35.9269 31.7005 35.9211 31.7063L35.7444 32.0893L35.5619 32.4987C35.5068 32.6214 35.4489 32.7413 35.3938 32.8583H35.417C35.4981 32.7735 35.6314 32.6419 35.8139 32.4606C35.9965 32.2794 36.1964 32.0893 36.4166 31.8759C36.5721 31.7262 36.7408 31.5911 36.9207 31.4724L36.9903 31.4286C37.0207 31.4077 37.0527 31.3891 37.0859 31.373C37.1113 31.3613 37.139 31.3554 37.167 31.3555C37.2028 31.3559 37.2374 31.3682 37.2655 31.3906C37.2795 31.4016 37.2908 31.4158 37.2983 31.4321C37.3059 31.4483 37.3095 31.4662 37.309 31.4841C37.2975 31.5658 37.2699 31.6443 37.2278 31.7151C37.1757 31.8262 37.1409 31.8964 37.1322 31.9227C36.8686 32.522 36.6947 32.9109 36.6165 33.0922L36.5933 33.1477C36.5933 33.1477 36.5933 33.1682 36.6397 33.1828C36.6574 33.1715 36.6771 33.1636 36.6976 33.1594C36.8451 33.0791 36.9822 32.9809 37.1061 32.867L37.5784 32.484H37.6016C37.6248 32.484 37.6364 32.5016 37.6364 32.5396C37.6384 32.5881 37.6284 32.6363 37.6074 32.6799C37.5782 32.7237 37.5419 32.7622 37.5002 32.7939C37.3468 32.9252 37.1852 33.0463 37.0163 33.1565C36.8785 33.2555 36.7285 33.3361 36.5701 33.3962C36.5298 33.4025 36.4888 33.4025 36.4485 33.3962C36.3528 33.3962 36.2978 33.3582 36.2891 33.2822C36.3281 33.1253 36.3794 32.9718 36.4427 32.8232C36.5093 32.6711 36.5788 32.5308 36.6571 32.3642L36.9323 31.8233C36.942 31.7991 36.9469 31.7733 36.9468 31.7473C36.9468 31.7326 36.9468 31.7239 36.9323 31.7239C36.9027 31.7283 36.8748 31.7404 36.8512 31.7589C36.7041 31.8583 36.5646 31.9688 36.434 32.0893C36.3007 32.2121 36.1645 32.3495 36.0196 32.5016C35.8748 32.6536 35.7299 32.7939 35.5821 32.9694C35.4344 33.1448 35.2924 33.2617 35.1707 33.3758C35.1431 33.3931 35.1103 33.4003 35.078 33.3962C35.0114 33.3962 34.9795 33.3699 34.9795 33.3173V33.2705C35.0432 33.1097 35.1475 32.8349 35.2895 32.446C35.2518 32.4899 35.1997 32.5484 35.1331 32.6185C35.0885 32.6671 35.0411 32.713 34.9911 32.7559C34.9534 32.7559 34.936 32.7033 34.936 32.639C34.9404 32.604 34.9516 32.5701 34.969 32.5395C34.9864 32.5089 35.0097 32.4821 35.0374 32.4606C35.0809 32.4109 35.1533 32.3378 35.2576 32.2384C35.3478 32.1559 35.4321 32.067 35.5097 31.9724" fill="#1D1D1B"/>
<path d="M38.9545 31.3981C39.0211 31.1671 39.0878 30.9595 39.1544 30.7724C39.221 30.5853 39.2964 30.404 39.3804 30.2169C39.4644 30.0297 39.56 29.8397 39.6701 29.6321C39.7173 29.5417 39.779 29.4597 39.8527 29.3895C39.899 29.3364 39.9628 29.3022 40.0323 29.293C40.1134 29.293 40.154 29.3719 40.154 29.5298C40.1448 29.6694 40.1254 29.8082 40.096 29.945C40.0386 30.1913 39.968 30.4343 39.8845 30.673C39.7696 31.0091 39.6352 31.3381 39.4818 31.6583C39.3024 32.0425 39.0952 32.4129 38.8618 32.7664C38.8618 32.8248 38.8473 32.9067 38.8328 33.0149C38.8183 33.1231 38.8792 33.2078 38.9661 33.2166C39.0612 33.1914 39.152 33.152 39.2355 33.0997C39.3271 33.0431 39.4143 32.9796 39.4963 32.9096L39.7628 32.6845C39.8816 32.5559 39.9599 32.4945 39.9975 32.4945C40.0352 32.4945 40.0207 32.5354 40.0207 32.6143C40.0199 32.663 40.0036 32.7101 39.9743 32.7488C39.9411 32.7901 39.9032 32.8274 39.8613 32.8599L39.7281 32.9681C39.5919 33.085 39.4847 33.1728 39.4123 33.2283C39.3288 33.2921 39.2384 33.346 39.1428 33.3891C39.0468 33.4387 38.9406 33.4647 38.8328 33.4651C38.7979 33.4692 38.7626 33.4616 38.7323 33.4437C38.702 33.4258 38.6783 33.3984 38.6647 33.3657C38.6326 33.2815 38.614 33.1927 38.6097 33.1026C38.6145 33.0736 38.6145 33.0439 38.6097 33.0149C38.5865 33.0295 38.5199 33.088 38.4069 33.1845C38.3179 33.2638 38.2207 33.3334 38.1171 33.392C38.0355 33.4339 37.945 33.4549 37.8535 33.4534C37.5638 33.4534 37.4131 33.2605 37.4131 32.8687C37.4123 32.6062 37.4824 32.3484 37.6159 32.1231C37.7519 31.8991 37.9424 31.714 38.1693 31.5852C38.4049 31.453 38.6704 31.3845 38.94 31.3864L38.9545 31.3981ZM38.8589 31.5735C38.8215 31.5538 38.7791 31.5456 38.7372 31.5501C38.6204 31.5568 38.5065 31.5898 38.404 31.6466C38.119 31.7931 37.884 32.0222 37.7289 32.3044C37.6532 32.4478 37.6116 32.6069 37.6072 32.7693C37.6072 33.0763 37.6912 33.2342 37.8535 33.2459C38.0621 33.2459 38.3113 33.0529 38.6068 32.702C38.6598 32.5631 38.6986 32.4191 38.7227 32.2722C38.7806 32.0062 38.827 31.7723 38.8589 31.5735ZM38.9284 32.2722C39.0965 32.0244 39.2393 31.7599 39.3543 31.4828C39.5015 31.1459 39.6283 30.8003 39.7339 30.4478C39.8226 30.1852 39.8828 29.9137 39.9135 29.638C39.7639 29.863 39.634 30.1007 39.5253 30.3484C39.3862 30.6607 39.2653 30.9809 39.1631 31.3074C39.0627 31.6192 38.9843 31.9377 38.9284 32.2606V32.2722Z" fill="#1D1D1B"/>
<path d="M40.8264 31.3C40.8561 31.2945 40.8865 31.2945 40.9162 31.3C40.9886 31.3 41.0234 31.3322 41.0234 31.3965C41.0234 31.4608 41.0002 31.493 40.9509 31.5018C40.6532 31.5771 40.3909 31.755 40.2092 32.0046C40.0508 32.2246 39.961 32.4872 39.9514 32.759C39.9514 32.8759 39.9803 32.9636 39.989 33.0162C40.0029 33.0707 40.0298 33.1209 40.0673 33.1624C40.0896 33.1876 40.1168 33.2079 40.1472 33.2219C40.1776 33.236 40.2105 33.2436 40.244 33.2443C40.3674 33.2303 40.4841 33.1805 40.5801 33.101C40.685 33.0292 40.7754 32.9379 40.8466 32.832C40.7662 32.7134 40.7246 32.5723 40.7279 32.4286C40.7342 32.2377 40.7775 32.05 40.8553 31.876C40.8804 31.7981 40.9291 31.7301 40.9947 31.6818C41.0602 31.6335 41.1392 31.6073 41.2204 31.607C41.3102 31.607 41.3653 31.6333 41.3884 31.6889C41.4127 31.7673 41.4235 31.8494 41.4203 31.9315C41.4214 32.0484 41.4048 32.1647 41.3711 32.2765C41.3403 32.3779 41.2996 32.4758 41.2494 32.5689L41.1509 32.7531H41.2001L41.2552 32.7707C41.329 32.765 41.4004 32.742 41.4638 32.7034C41.5351 32.6613 41.603 32.6134 41.6666 32.5601L41.7651 32.4754C41.7796 32.4754 41.7883 32.5075 41.7883 32.5689C41.7875 32.6322 41.768 32.6937 41.7324 32.7458C41.6968 32.7979 41.6467 32.8381 41.5884 32.8613C41.4682 32.9295 41.3347 32.9704 41.1972 32.9812L41.0234 32.9461C40.906 33.085 40.7694 33.2061 40.6178 33.3057C40.496 33.3832 40.356 33.4266 40.2121 33.4314C40.1454 33.4358 40.0786 33.4238 40.0175 33.3963C39.9564 33.3688 39.9029 33.3266 39.8615 33.2735C39.7658 33.1106 39.7232 32.9214 39.7399 32.7326V32.6742C39.7381 32.4023 39.8268 32.1377 39.9919 31.9228C40.1214 31.7441 40.2837 31.5923 40.47 31.4754C40.5837 31.4062 40.7029 31.3466 40.8264 31.2971V31.3ZM40.9973 32.6391C41.0617 32.5117 41.1169 32.3798 41.1625 32.2444C41.2018 32.1394 41.2253 32.029 41.232 31.9169C41.232 31.8497 41.232 31.8175 41.1972 31.8175C41.1625 31.8175 41.0697 31.876 41.0118 31.9959C40.9543 32.1197 40.9218 32.2539 40.9162 32.3906C40.921 32.4792 40.949 32.5649 40.9973 32.6391Z" fill="#1D1D1B"/>
<path d="M41.582 32.5325C41.9944 32.17 42.3727 31.7697 42.712 31.3367C42.7348 31.2836 42.7504 31.2275 42.7584 31.1701C42.7731 31.0884 42.8026 31.0101 42.8453 30.9391C42.8651 30.9084 42.8929 30.8838 42.9255 30.8678C42.9582 30.8519 42.9946 30.8452 43.0307 30.8485C43.0945 30.8485 43.1234 30.8894 43.1234 30.9713C43.1178 31.0466 43.095 31.1197 43.0568 31.1847C43.0121 31.2643 42.9554 31.3363 42.8887 31.3981C42.871 31.4787 42.8632 31.5612 42.8656 31.6437C42.8656 31.7987 42.8656 31.8835 42.8656 31.8952C42.8656 31.9069 42.8656 31.9917 42.8656 32.0297C42.8656 32.0677 42.8656 32.1057 42.8656 32.1495C42.8656 32.1934 42.8656 32.2489 42.8656 32.3074C42.857 32.4833 42.8219 32.6568 42.7613 32.822C42.7259 32.9164 42.6823 33.0074 42.6309 33.0939C42.8175 33.0302 42.9948 32.9417 43.1582 32.8308C43.2966 32.7475 43.4258 32.6495 43.5435 32.5384C43.5435 32.5384 43.5609 32.5179 43.5725 32.5179C43.5841 32.5179 43.5957 32.5472 43.5957 32.6027C43.5984 32.6377 43.5984 32.6729 43.5957 32.708C43.5862 32.73 43.5724 32.7499 43.5551 32.7664C43.4392 32.8542 43.2712 32.9682 43.051 33.1085C42.8775 33.2301 42.6797 33.3119 42.4715 33.3483C42.4147 33.3579 42.3592 33.3746 42.3064 33.398L42.1615 33.4506C42.1163 33.4633 42.0693 33.4682 42.0224 33.4652C41.7617 33.4652 41.6342 33.4097 41.6342 33.2986C41.6342 33.243 41.6661 33.2167 41.7298 33.2167H41.8167H41.9181L42.0485 33.2342C42.1484 33.2279 42.2464 33.2041 42.3382 33.1641C42.4657 33.1027 42.5498 32.9419 42.5932 32.6846C42.6367 32.4273 42.6685 32.0998 42.6946 31.7285C42.6512 31.7841 42.5787 31.8601 42.4802 31.9624L42.063 32.3747L41.7733 32.667C41.7313 32.7122 41.6836 32.7516 41.6313 32.784C41.5994 32.784 41.5849 32.746 41.5849 32.6904C41.5831 32.6632 41.5873 32.636 41.5974 32.6107C41.6074 32.5853 41.6229 32.5626 41.6429 32.5442" fill="#1D1D1B"/>
<path d="M45.1317 32.5429C45.1397 32.5423 45.1477 32.5438 45.1549 32.5474C45.162 32.551 45.168 32.5566 45.1723 32.5634C45.1819 32.5715 45.1881 32.583 45.1897 32.5956C45.1897 32.6745 45.1752 32.7242 45.1433 32.7476C44.9447 32.9399 44.7273 33.1114 44.4943 33.2593C44.2875 33.3933 44.0476 33.4663 43.8018 33.4698C43.7317 33.4686 43.6619 33.4607 43.5932 33.4464C43.5448 33.4298 43.5007 33.4022 43.4646 33.3657C43.4284 33.3292 43.401 33.2848 43.3846 33.2359C43.3242 33.0847 43.2965 32.9222 43.3035 32.7593C43.2999 32.7087 43.2999 32.6579 43.3035 32.6073C43.3213 32.4398 43.3834 32.2803 43.4831 32.1453C43.5895 31.9964 43.7163 31.8635 43.8598 31.7506C43.9983 31.6382 44.1478 31.5402 44.306 31.4582C44.4152 31.4031 44.5346 31.3712 44.6565 31.3647C44.753 31.3604 44.848 31.3892 44.926 31.4465C44.9572 31.4723 44.9821 31.5049 44.9986 31.5419C45.0152 31.579 45.0231 31.6194 45.0216 31.66C45.0179 31.7812 44.9903 31.9005 44.9405 32.0108C44.8854 32.1395 44.8188 32.2126 44.7377 32.2272C44.722 32.2186 44.7055 32.2117 44.6884 32.2067C44.6747 32.2032 44.6623 32.1958 44.6526 32.1855C44.6428 32.1751 44.6362 32.1622 44.6334 32.1482C44.6334 32.1044 44.6797 32.0342 44.7261 31.9319C44.7652 31.8616 44.7936 31.7857 44.8101 31.7068C44.8113 31.684 44.8056 31.6614 44.7937 31.6421C44.7818 31.6227 44.7642 31.6075 44.7435 31.5986C44.7025 31.5762 44.6568 31.5642 44.6102 31.5635C44.562 31.5642 44.5142 31.5721 44.4682 31.5869C44.1476 31.7366 43.8747 31.9735 43.6801 32.271C43.5827 32.417 43.5257 32.5866 43.515 32.7622C43.515 33.0838 43.628 33.2534 43.8598 33.271C44.0737 33.2266 44.2779 33.1433 44.4624 33.0254C44.6889 32.8744 44.9066 32.7104 45.1143 32.5342" fill="#1D1D1B"/>
<path d="M46.0036 31.3C46.0343 31.2945 46.0657 31.2945 46.0964 31.3C46.1688 31.3 46.2036 31.3322 46.2036 31.3965C46.2036 31.4608 46.1804 31.493 46.1311 31.5017C45.8516 31.5729 45.6027 31.7342 45.4223 31.9611C45.2419 32.188 45.1398 32.4681 45.1315 32.7589C45.146 32.8759 45.1576 32.9636 45.1692 33.0162C45.1831 33.0707 45.2099 33.1208 45.2474 33.1624C45.2697 33.1876 45.2969 33.2078 45.3273 33.2219C45.3577 33.236 45.3907 33.2436 45.4242 33.2443C45.5475 33.2303 45.6643 33.1805 45.7603 33.101C45.8645 33.0283 45.9548 32.9372 46.0268 32.832C45.9465 32.7132 45.9041 32.5724 45.9051 32.4286C45.914 32.2378 45.9582 32.0503 46.0355 31.876C46.0605 31.7981 46.1093 31.7301 46.1748 31.6818C46.2404 31.6335 46.3194 31.6073 46.4006 31.607C46.4904 31.607 46.5454 31.6333 46.5686 31.6889C46.5928 31.7673 46.6036 31.8494 46.6005 31.9315C46.6002 32.0483 46.5836 32.1644 46.5512 32.2765C46.5205 32.3779 46.4797 32.4758 46.4295 32.5689L46.331 32.7531H46.3803L46.4353 32.7706C46.5091 32.765 46.5806 32.742 46.6439 32.7034C46.7148 32.662 46.7818 32.614 46.8439 32.5601L46.9453 32.4753C46.9598 32.4753 46.9684 32.5075 46.9684 32.5689C46.9676 32.6322 46.9482 32.6937 46.9126 32.7458C46.877 32.7979 46.8268 32.8381 46.7685 32.8613C46.6483 32.9295 46.5149 32.9704 46.3774 32.9811L46.2036 32.9461C46.0855 33.0843 45.949 33.2053 45.7979 33.3057C45.6762 33.3832 45.5362 33.4265 45.3923 33.4314C45.3255 33.4358 45.2587 33.4238 45.1976 33.3963C45.1365 33.3687 45.083 33.3266 45.0417 33.2735C44.946 33.1106 44.9034 32.9213 44.92 32.7326V32.6742C44.9182 32.4023 45.007 32.1376 45.1721 31.9228C45.3016 31.7441 45.4639 31.5923 45.6502 31.4754C45.7627 31.4058 45.8809 31.3461 46.0036 31.2971V31.3ZM46.1775 32.6391C46.2419 32.5117 46.2971 32.3798 46.3426 32.2444C46.382 32.1394 46.4054 32.029 46.4122 31.9169C46.4122 31.8497 46.4122 31.8175 46.3774 31.8175C46.3108 31.8175 46.247 31.876 46.192 31.9958C46.1332 32.1193 46.1006 32.2537 46.0964 32.3906C46.1012 32.4792 46.1292 32.5649 46.1775 32.6391Z" fill="#1D1D1B"/>
<path d="M47.8928 31.4211L47.8233 31.6521L47.7537 31.8831C47.8368 31.766 47.9341 31.6599 48.0435 31.5673C48.1682 31.4418 48.3318 31.3633 48.507 31.3451C48.5698 31.3348 48.6342 31.3396 48.6948 31.3591C48.7554 31.3785 48.8107 31.4121 48.8561 31.457C48.9015 31.502 48.9358 31.5571 48.9562 31.6179C48.9766 31.6787 48.9825 31.7435 48.9735 31.8071C48.9747 31.9055 48.964 32.0037 48.9416 32.0994C48.8966 32.3124 48.8045 32.5123 48.6722 32.6842C48.578 32.8265 48.4744 32.9623 48.3622 33.0906C48.5407 33.0844 48.7141 33.0288 48.8634 32.9298C49.0657 32.8028 49.2593 32.6621 49.4429 32.5088C49.4748 32.5088 49.4892 32.538 49.4892 32.5936C49.4882 32.6268 49.4805 32.6595 49.4665 32.6897C49.4526 32.7198 49.4327 32.7468 49.4081 32.769C49.033 33.1303 48.5386 33.3386 48.0203 33.3537C47.9132 33.4192 47.789 33.4508 47.6639 33.4444C47.597 33.4491 47.5301 33.436 47.4698 33.4064C47.4198 33.3697 47.379 33.3216 47.351 33.266C47.351 33.1958 47.4176 33.1608 47.5509 33.1608H47.6176C47.6773 33.1557 47.7374 33.1557 47.7972 33.1608H47.8899H47.9334C48.0753 33.051 48.2054 32.9266 48.3216 32.7894C48.4382 32.6471 48.5356 32.4898 48.6113 32.3216C48.6859 32.1687 48.7255 32.0009 48.7272 31.8305C48.7272 31.6638 48.6664 31.5819 48.5389 31.5819C48.4467 31.5872 48.3576 31.6175 48.281 31.6697C48.1521 31.7571 48.0361 31.8624 47.9363 31.9825C47.8336 32.0963 47.7369 32.2153 47.6465 32.3392C47.5741 32.4444 47.5248 32.5175 47.4959 32.5672C47.393 32.7384 47.3076 32.9196 47.2409 33.1081C47.1771 33.2935 47.1258 33.483 47.0873 33.6753C47.0468 33.8605 47.0033 34.0886 46.957 34.3595C46.9106 34.6285 46.8816 34.7893 46.87 34.839C46.8543 34.8994 46.8267 34.9561 46.7889 35.0056C46.7483 35.0524 46.7136 35.0787 46.6817 35.0787C46.6498 35.0787 46.6006 35.0261 46.6006 34.9208C46.6107 34.7233 46.6408 34.5274 46.6904 34.3361C46.7484 34.07 46.8237 33.7923 46.9077 33.4941C46.9917 33.1958 47.0757 32.9327 47.154 32.693C47.2322 32.4532 47.2931 32.2983 47.3278 32.2252L47.0526 32.5175C46.9164 32.6608 46.8295 32.7514 46.7889 32.7865C46.7483 32.8216 46.7889 32.7865 46.7628 32.807C46.7529 32.8066 46.7432 32.8037 46.7346 32.7986C46.726 32.7935 46.7188 32.7863 46.7136 32.7777C46.6992 32.7562 46.692 32.7306 46.6933 32.7047C46.6922 32.6793 46.6968 32.6539 46.7068 32.6306C46.7169 32.6073 46.7321 32.5866 46.7512 32.5702C46.8034 32.5117 46.9077 32.4094 47.0584 32.2778C47.1717 32.1656 47.2781 32.0464 47.3771 31.9211C47.4367 31.8576 47.491 31.7891 47.5393 31.7164C47.5816 31.659 47.6139 31.5947 47.6349 31.5264C47.6465 31.4738 47.6668 31.4416 47.6958 31.4299C47.7379 31.4163 47.782 31.4103 47.8262 31.4124C47.8529 31.4069 47.8805 31.4069 47.9073 31.4124" fill="#1D1D1B"/>
<path d="M50.0888 31.4219H50.3351C50.2924 31.5415 50.243 31.6586 50.1873 31.7727L49.9614 32.223C49.8657 32.4072 49.7904 32.5592 49.7383 32.682C49.6853 32.8052 49.6417 32.9322 49.6079 33.0621C49.6114 33.0754 49.6184 33.0876 49.6282 33.0972C49.683 33.0732 49.7354 33.0438 49.7846 33.0095C49.9496 32.8729 50.1073 32.7274 50.2569 32.5738C50.4684 32.3633 50.6712 32.1499 50.8653 31.9365C51.007 31.7871 51.1368 31.6268 51.2536 31.457C51.2536 31.457 51.2941 31.4336 51.355 31.4336C51.4158 31.4336 51.4998 31.4511 51.4998 31.4803C51.4332 31.6236 51.3463 31.8166 51.2333 32.0651L50.8943 32.8136L50.6277 33.3983L50.9638 33.1059L51.4477 32.6966L51.7374 32.4686C51.7374 32.4686 51.7635 32.4686 51.7751 32.5037C51.7886 32.5309 51.7956 32.5609 51.7954 32.5914C51.7977 32.6132 51.7947 32.6353 51.7866 32.6557C51.7785 32.676 51.7656 32.6941 51.749 32.7083C51.7055 32.7434 51.6012 32.8282 51.4361 32.9685L50.9725 33.3603C50.8335 33.4831 50.7002 33.603 50.5785 33.7199C50.4915 33.7943 50.4146 33.8798 50.3496 33.9743C50.2888 34.0854 50.2076 34.2667 50.0975 34.4889C50.0293 34.6228 49.9684 34.7605 49.915 34.9011C49.8984 34.9408 49.8725 34.9759 49.8397 35.0034C49.8019 35.0386 49.752 35.0575 49.7006 35.0561C49.6813 35.0578 49.6618 35.0553 49.6435 35.0487C49.6252 35.0422 49.6085 35.0318 49.5945 35.0183C49.5805 35.0047 49.5696 34.9883 49.5624 34.9701C49.5552 34.9519 49.5519 34.9324 49.5528 34.9128C49.5528 34.9128 49.5528 34.8807 49.5528 34.8543C49.5528 34.828 49.5528 34.8105 49.5528 34.7959C49.6153 34.5855 49.7133 34.3877 49.8426 34.2111C49.9485 34.0409 50.0667 33.8786 50.196 33.7258C50.2322 33.6845 50.2625 33.6382 50.2859 33.5884C50.3061 33.5416 50.3351 33.4743 50.367 33.3837C50.3989 33.2931 50.4307 33.2229 50.4539 33.1703C50.4771 33.1176 50.5495 32.9656 50.6538 32.7405L50.903 32.1996C50.8277 32.2698 50.706 32.3955 50.5321 32.5738C50.3583 32.7522 50.2105 32.8984 50.0946 33.0065C49.9847 33.1145 49.8654 33.2123 49.7383 33.2989C49.6258 33.3741 49.4981 33.4231 49.3645 33.4422C49.2921 33.4422 49.2573 33.4071 49.2573 33.3398C49.2614 33.2779 49.274 33.2169 49.295 33.1586C49.3626 32.9909 49.4234 32.8506 49.4775 32.7376C49.5325 32.6206 49.576 32.5417 49.6021 32.492L49.4427 32.6557L49.2834 32.8223C49.263 32.8174 49.2435 32.8095 49.2254 32.799C49.2139 32.7916 49.2045 32.7811 49.1984 32.7687C49.1923 32.7564 49.1896 32.7426 49.1907 32.7288C49.1977 32.6556 49.2318 32.5877 49.2863 32.5387C49.3326 32.489 49.4282 32.3926 49.576 32.2464C49.6809 32.1492 49.7778 32.0436 49.8657 31.9306C49.9122 31.8605 49.952 31.7861 49.9845 31.7084L50.1004 31.4423" fill="#1D1D1B"/>
<path d="M51.8589 33.4589H51.8096C51.7914 33.4614 51.7728 33.4576 51.757 33.448C51.7412 33.4384 51.7291 33.4237 51.7227 33.4063C51.7096 33.3577 51.7037 33.3075 51.7053 33.2572C51.7188 33.1875 51.7569 33.1252 51.8125 33.0818C51.8668 33.0334 51.9371 33.0073 52.0096 33.0087C52.0733 33.0087 52.1052 33.0555 52.1052 33.1519C52.1043 33.2234 52.0775 33.292 52.0298 33.3449C51.9885 33.4027 51.9277 33.4432 51.8589 33.4589ZM52.0617 32.6549L52.986 30.161C52.9896 30.1352 53.0019 30.1115 53.0207 30.0937C53.0576 30.0643 53.1044 30.0507 53.1511 30.0557C53.1638 30.0538 53.1768 30.0549 53.1891 30.0589C53.2013 30.0629 53.2125 30.0697 53.2217 30.0787C53.231 30.0878 53.238 30.0988 53.2424 30.1111C53.2467 30.1233 53.2482 30.1364 53.2467 30.1493C53.2499 30.1706 53.2499 30.1923 53.2467 30.2136L52.2587 32.6666C52.2511 32.6933 52.2361 32.7173 52.2157 32.7359C52.1952 32.7545 52.1699 32.767 52.1428 32.7719C52.1256 32.7702 52.1094 32.763 52.0965 32.7514C52.0829 32.7379 52.0738 32.7206 52.0704 32.7017C52.0718 32.6861 52.0718 32.6705 52.0704 32.6549" fill="#1D1D1B"/>
<path d="M52.0078 11.1677L50.9011 12.4951L51.3559 14.1646L49.7653 13.5155L48.3311 14.4657L48.4557 12.7407L47.1113 11.6589L48.7802 11.2408L49.3828 9.62109L50.2926 11.0917L52.0078 11.1677Z" fill="#FBB800"/>
<path d="M35.229 11.9126C35.2303 12.1394 35.1819 12.3637 35.0873 12.5694C34.9926 12.7751 34.854 12.9572 34.6814 13.1025C34.3169 13.4196 33.8516 13.5941 33.3704 13.5941C32.8891 13.5941 32.4238 13.4196 32.0593 13.1025C31.8871 12.957 31.7489 12.7749 31.6547 12.5692C31.5606 12.3634 31.5127 12.1392 31.5146 11.9126C31.5184 11.7707 31.5369 11.6296 31.5697 11.4915C31.361 11.474 31.2278 11.4623 31.1727 11.4623C30.4658 11.4623 30.1152 11.7547 30.1152 12.357C30.1152 12.6493 30.3209 13.3423 30.7381 14.4036C31.1553 15.4649 31.361 16.2923 31.361 16.8917C31.361 18.1762 30.658 19.139 29.2518 19.7803C28.0857 20.2767 26.8288 20.5188 25.5634 20.4908C24.4015 20.5104 23.2448 20.3274 22.1446 19.9499C20.7442 19.4451 20.0449 18.6654 20.0469 17.6109C20.0469 16.0808 21.3362 15.3168 23.9148 15.3187H26.5688L27.0759 16.4414H25.0071C24.5397 16.4313 24.0758 16.5252 23.6483 16.7162C23.4304 16.7944 23.2414 16.938 23.1067 17.1277C22.9721 17.3174 22.8982 17.5442 22.895 17.7776C22.895 18.3097 23.2427 18.7219 23.9351 19.0231C24.476 19.2572 25.0589 19.3766 25.6475 19.3739C26.3269 19.3985 26.9984 19.2194 27.5771 18.8593C27.8628 18.6834 28.0969 18.4339 28.2553 18.1363C28.4137 17.8388 28.4906 17.504 28.4782 17.1665C28.415 16.4105 28.2187 15.6719 27.8987 14.9854C27.5766 14.2904 27.3804 13.5428 27.3192 12.778C27.3192 11.0666 28.7621 10.2109 31.6479 10.2109H33.3689C33.8358 10.2098 34.2867 10.3826 34.6351 10.6963C34.8177 10.8415 34.9658 11.0261 35.0686 11.2365C35.1713 11.447 35.2262 11.678 35.229 11.9126Z" fill="#4D4D4D"/>
<path d="M36.4515 14.7238H36.6572C37.2367 14.7238 37.5409 14.9343 37.5409 15.3494C37.5475 15.4775 37.5232 15.6053 37.4702 15.7219C37.4173 15.8385 37.3371 15.9404 37.2367 16.019C36.9803 16.1914 36.6751 16.2745 36.3675 16.2558H35.8576L34.9246 18.5714H35.704C36.2835 18.5714 36.5906 18.779 36.5906 19.1971C36.5962 19.3252 36.571 19.4528 36.517 19.5689C36.463 19.685 36.3818 19.7862 36.2806 19.8637C36.0249 20.0379 35.7193 20.1222 35.4114 20.1034H34.1655C33.8659 20.12 33.5697 20.0334 33.3253 19.8578C33.2245 19.7792 33.1438 19.6775 33.0898 19.561C33.0359 19.4445 33.0103 19.3168 33.0152 19.1883C33.0189 18.9871 33.0612 18.7885 33.1398 18.6036L33.2731 18.2936L34.096 16.247H33.9917C33.4701 16.247 33.2094 16.0453 33.2094 15.636C33.2053 15.5059 33.232 15.3767 33.2875 15.2592C33.3429 15.1417 33.4254 15.0393 33.5281 14.9606C33.7832 14.7849 34.0889 14.6996 34.3973 14.7179H34.716L35.0869 13.7911L35.1622 13.601C35.3824 13.0806 35.7243 12.8204 36.1936 12.8204C36.3771 12.8173 36.5542 12.8877 36.6862 13.0163C36.7517 13.0749 36.8039 13.147 36.8394 13.2277C36.8749 13.3084 36.8928 13.3958 36.8919 13.4841C36.8769 13.7184 36.8148 13.9472 36.7094 14.1566L36.4515 14.7238Z" fill="#4D4D4D"/>
<path d="M42.0175 18.5719H42.7853C43.3647 18.5719 43.6545 18.7766 43.6545 19.1888C43.6602 19.3181 43.6348 19.4469 43.5803 19.564C43.5258 19.6812 43.4438 19.7832 43.3416 19.8613C43.0864 20.0369 42.7807 20.1223 42.4723 20.1039H41.5829C41.4177 20.118 41.2522 20.0811 41.1084 19.9981C40.9645 19.915 40.8491 19.7898 40.7774 19.6391C40.5105 19.9163 40.1513 20.084 39.7691 20.1098H38.9752C38.7415 20.1178 38.509 20.0722 38.2952 19.9765C38.0814 19.8808 37.8919 19.7374 37.741 19.5572C37.4136 19.1503 37.2456 18.6364 37.2687 18.1129C37.2671 17.2196 37.5968 16.3581 38.193 15.6979C38.4405 15.3752 38.7561 15.1122 39.117 14.9281C39.4778 14.744 39.8748 14.6434 40.2791 14.6336C40.5311 14.6131 40.784 14.6596 41.0128 14.7683C41.2415 14.8771 41.438 15.0443 41.5829 15.2535C41.6755 15.0921 41.8086 14.9583 41.9689 14.8654C42.1291 14.7725 42.3107 14.7238 42.4955 14.7243C42.6858 14.7197 42.8701 14.7911 43.0084 14.9231C43.0743 14.9844 43.1268 15.059 43.1622 15.1421C43.1977 15.2253 43.2153 15.315 43.2141 15.4055C43.2068 15.5692 43.1684 15.73 43.1011 15.8791L43.0257 16.0692L42.0175 18.5719ZM39.4881 18.607H39.6648C39.8248 18.6221 39.9853 18.5843 40.1222 18.4994C40.2591 18.4146 40.365 18.2871 40.4239 18.1363L40.9107 16.92C40.9672 16.7936 41.0006 16.6579 41.0092 16.5194C41.0077 16.4528 40.9901 16.3875 40.9577 16.3294C40.9254 16.2713 40.8794 16.2221 40.8238 16.1861C40.6958 16.0905 40.5396 16.0411 40.3805 16.0458C40.1816 16.0639 39.9894 16.1272 39.8183 16.231C39.6471 16.3348 39.5016 16.4764 39.3925 16.6452C39.0919 16.988 38.9215 17.4272 38.9115 17.8848C38.9115 18.3643 39.1027 18.607 39.4881 18.607Z" fill="#4D4D4D"/>
<path d="M45.6685 16.2639L45.4338 16.8486C45.2194 17.372 44.9412 17.6351 44.5964 17.6351C44.4048 17.6422 44.2179 17.5741 44.0749 17.445C44.0081 17.3868 43.9548 17.3144 43.9187 17.2331C43.8827 17.1518 43.8648 17.0634 43.8663 16.9743C43.8862 16.783 43.9371 16.5964 44.017 16.4217L44.805 14.4599C44.9982 13.9863 45.2677 13.7495 45.6134 13.7495C45.7614 13.7334 45.9099 13.7754 46.0281 13.8669C46.1462 13.9583 46.225 14.0922 46.2479 14.2406L46.303 14.4599C46.3077 14.5023 46.3216 14.543 46.3436 14.5794C46.3657 14.6158 46.3953 14.6468 46.4305 14.6704C46.5641 14.7088 46.7034 14.7227 46.8419 14.7114H48.4702C49.0786 14.7114 49.3828 14.9277 49.3828 15.3604C49.3828 15.9452 48.9965 16.2375 48.2239 16.2375L48.1457 16.3077C47.4098 17.0211 47.0389 17.5708 47.0389 17.9596C47.0389 18.3485 47.2533 18.5444 47.6792 18.5444H48.5484C49.1279 18.5444 49.435 18.749 49.435 19.1613C49.4416 19.2908 49.4168 19.42 49.3628 19.5377C49.3088 19.6553 49.2271 19.758 49.125 19.8367C48.8695 20.0113 48.5638 20.0956 48.2558 20.0764H46.8911C46.6778 20.0835 46.4656 20.0437 46.269 19.9599C46.0724 19.8761 45.8962 19.7503 45.7525 19.5911C45.4486 19.2448 45.2897 18.7931 45.3092 18.3309C45.31 17.9975 45.3916 17.6693 45.5468 17.3749C45.7796 16.9632 46.0607 16.5813 46.3841 16.2375L45.6685 16.2639Z" fill="#4D4D4D"/>
<path d="M52.0709 16.6466L51.9405 16.9682C51.7348 17.4331 51.4451 17.667 51.0713 17.667C50.8813 17.6674 50.6981 17.5953 50.5585 17.4652C50.4892 17.41 50.4329 17.3399 50.3938 17.26C50.3547 17.1801 50.3338 17.0924 50.3325 17.0033C50.3514 16.7735 50.4207 16.5508 50.5353 16.3513L51.4625 14.4509C51.6885 13.9977 51.9724 13.7696 52.3114 13.7696C52.4843 13.7667 52.6516 13.8317 52.7779 13.9509C52.8395 14.0027 52.889 14.0675 52.9231 14.1408C52.9571 14.214 52.9748 14.2939 52.9749 14.3748C52.9674 14.4674 52.9529 14.5593 52.9314 14.6497C52.9142 14.7403 52.9045 14.8322 52.9025 14.9245C52.912 15.257 53.0267 15.5777 53.2299 15.8396L53.6268 16.3951C53.9958 16.8656 54.2077 17.4418 54.2323 18.0412C54.2366 18.321 54.1802 18.5984 54.0671 18.854C53.954 19.1095 53.7869 19.337 53.5775 19.5206C53.1268 19.9169 52.5438 20.1258 51.9463 20.1054H50.4977C49.9182 20.1054 49.614 19.8978 49.614 19.4855C49.6087 19.3567 49.6344 19.2285 49.6888 19.1119C49.7433 18.9953 49.825 18.8938 49.9269 18.816C50.1814 18.6389 50.4876 18.5534 50.7961 18.5733H51.6044C52.2505 18.5733 52.5751 18.3365 52.5751 17.8629C52.563 17.6475 52.5004 17.438 52.3925 17.2518L52.0709 16.6466Z" fill="#4D4D4D"/>
<path d="M0 4.85938H6.27277V6.84167H2.56126V8.92336H5.05008V10.9057H2.56126V13.0429H6.27277V15.11H0V4.85938Z" fill="#1A1A1A"/>
<path d="M7.02881 7.88251H9.25977V8.84734H9.28584C9.51272 8.49504 9.82374 8.20598 10.1903 8.00672C10.5569 7.80747 10.9672 7.70443 11.3835 7.70708C12.3358 7.73827 12.8254 8.28208 12.8525 9.33852V15.11H10.6244V9.99052C10.6392 9.90753 10.635 9.82222 10.6122 9.74113C10.5893 9.66003 10.5483 9.5853 10.4923 9.52265C10.4364 9.46 10.367 9.4111 10.2895 9.3797C10.2119 9.34829 10.1283 9.3352 10.045 9.34145C9.92342 9.33924 9.80292 9.36433 9.69218 9.4149C9.58143 9.46546 9.48322 9.54024 9.40464 9.63382L9.27136 9.8034V15.0954H7.02881V7.88251Z" fill="#1A1A1A"/>
<path d="M19.9947 15.11H17.842V14.4083H17.8246C17.5748 14.6698 17.2804 14.8837 16.9554 15.0398C16.678 15.1465 16.383 15.1991 16.0862 15.1948C15.743 15.1988 15.4057 15.1037 15.1142 14.9209C14.8227 14.7381 14.5889 14.475 14.4405 14.1627C14.0569 13.4263 13.8673 12.6027 13.89 11.7711C13.8562 10.8346 14.0242 9.9019 14.3826 9.03739C14.527 8.68069 14.7764 8.3773 15.0971 8.16816C15.4178 7.95903 15.7944 7.85423 16.176 7.8679C16.4831 7.86136 16.789 7.90885 17.08 8.00823C17.3373 8.13984 17.5697 8.31599 17.7667 8.52866V4.85938H19.9947V15.11ZM17.7667 9.50811C17.6742 9.39359 17.5553 9.30362 17.4205 9.24603C17.2857 9.18845 17.1389 9.165 16.9931 9.17773C16.9078 9.17348 16.8227 9.18952 16.7447 9.22457C16.6667 9.25961 16.5979 9.31267 16.544 9.37947C16.4098 9.54732 16.3254 9.75003 16.3006 9.96421C16.2228 10.4356 16.1879 10.9132 16.1963 11.391C16.1777 11.9777 16.2126 12.565 16.3006 13.1452C16.3798 13.5896 16.5729 13.8118 16.8801 13.8118C17.0684 13.8107 17.2525 13.7548 17.4103 13.651C17.5566 13.5484 17.68 13.4159 17.7725 13.2622L17.7667 9.50811Z" fill="#1A1A1A"/>
<path d="M21.0114 11.473C20.9695 10.5051 21.25 9.55089 21.8082 8.76265C22.3442 8.06973 23.141 7.71596 24.1956 7.70718C25.2503 7.69841 26.0644 8.0668 26.6004 8.76265C27.1489 9.55399 27.4248 10.5052 27.3856 11.47C27.3856 12.6122 27.1287 13.5235 26.6149 14.2037C26.0992 14.9171 25.2976 15.2777 24.2101 15.2855C23.1226 15.2933 22.322 14.9327 21.8082 14.2037C21.277 13.5254 21.0114 12.6152 21.0114 11.473ZM23.3293 11.473C23.2928 12.1011 23.3673 12.7307 23.5495 13.3324C23.5863 13.4765 23.6706 13.6037 23.7886 13.693C23.9065 13.7823 24.0511 13.8283 24.1985 13.8236C24.3431 13.8235 24.484 13.7774 24.6012 13.6921C24.7254 13.6028 24.8195 13.4773 24.8707 13.3324C25.029 12.7263 25.0935 12.099 25.0619 11.473C25.0847 10.8719 25.0302 10.2705 24.8997 9.68363C24.8501 9.53605 24.7559 9.40786 24.6304 9.31706C24.5049 9.22627 24.3544 9.17744 24.2 9.17744C24.0455 9.17744 23.895 9.22627 23.7695 9.31706C23.644 9.40786 23.5498 9.53605 23.5002 9.68363C23.3508 10.2674 23.2931 10.8712 23.3293 11.473Z" fill="#1A1A1A"/>
<path d="M42.8345 1.63161L41.7278 2.95606L42.1855 4.62843L40.5949 3.97644L39.1607 4.92958L39.2795 3.20165L37.9409 2.11987L39.6069 1.70178L40.2124 0.0820312L41.1193 1.55267L42.8345 1.63161Z" fill="#FBB800"/>
<path d="M49.2608 2.33083L48.1569 3.6582L48.6118 5.32765L47.0212 4.67566L45.5899 5.6288L45.7116 3.90087L44.3672 2.81909L46.0332 2.401L46.6387 0.78125L47.5485 2.25189L49.2608 2.33083Z" fill="#FBB800"/>
<path d="M30.335 4.93239L29.2311 6.25977L29.6831 7.92922L28.0925 7.27722L26.6612 8.23036L26.7829 6.50243L25.4414 5.42065L27.1074 5.00256L27.7129 3.38281L28.6198 4.85345L30.335 4.93239Z" fill="#FBB800"/>
<path d="M36.5469 2.79567L35.4431 4.12305L35.8979 5.78957L34.3073 5.13758L32.8731 6.09364L32.9948 4.36572L31.6533 3.28393L33.3193 2.86584L33.9248 1.24609L34.8317 2.71673L36.5469 2.79567Z" fill="#FBB800"/>
<path d="M53.6358 5.41677L52.5319 6.74414L52.9868 8.41359L51.3932 7.7616L49.9619 8.71474L50.0836 6.98973L48.7393 5.90503L50.4081 5.48986L51.0137 3.86719L51.9205 5.33782L53.6358 5.41677Z" fill="#FBB800"/>
<path d="M4.65625 19.8175L5.76014 18.4931L5.30526 16.8207L6.8959 17.4727L8.33009 16.5195L8.2084 18.2475L9.54988 19.3292L7.8839 19.7444L7.27835 21.3671L6.37148 19.8964L4.65625 19.8175Z" fill="#FBB800"/>
<path d="M18.1724 27.5997L19.2792 26.2753L18.8243 24.6029L20.4149 25.2578L21.8491 24.3047L21.7274 26.0326L23.0689 27.1115L21.4029 27.5296L20.7974 29.1493L19.8876 27.6787L18.1724 27.5997Z" fill="#FBB800"/>
<path d="M11.4561 27.4894L12.5599 26.162L12.1051 24.4925L13.6957 25.1445L15.1299 24.1885L15.0082 25.9164L16.3497 26.9982L14.6837 27.4163L14.0782 29.0389L13.1713 27.5654L11.4561 27.4894Z" fill="#FBB800"/>
<path d="M30.3818 23.713L31.4886 22.3886L31.0337 20.7191L32.6244 21.3682L34.0557 20.418L33.9369 22.143L35.2784 23.2248L33.6095 23.6428L33.0039 25.2626L32.1 23.792L30.3818 23.713Z" fill="#FBB800"/>
<path d="M24.459 26.1456L25.5658 24.8182L25.108 23.1488L26.6986 23.8008L28.1328 22.8477L28.0111 24.5756L29.3526 25.6574L27.6866 26.0725L27.0811 27.6952L26.1742 26.2246L24.459 26.1456Z" fill="#FBB800"/>
<path d="M5.05566 26.1534L6.15956 24.829L5.70467 23.1595L7.29532 23.8086L8.72951 22.8555L8.60492 24.5834L9.94929 25.6652L8.28331 26.0833L7.67777 27.703L6.768 26.2324L5.05566 26.1534Z" fill="#FBB800"/>
<path d="M54.6729 11.005C54.8482 11.004 55.0219 11.0398 55.1828 11.1102C55.3421 11.1791 55.4867 11.2784 55.6087 11.4026C55.7305 11.5257 55.8287 11.6704 55.8984 11.8295C55.9672 11.9916 56.0027 12.1662 56.0027 12.3426C56.0027 12.519 55.9672 12.6935 55.8984 12.8557C55.8305 13.0167 55.7321 13.1627 55.6087 13.2855C55.4872 13.409 55.3437 13.5082 55.1857 13.5779C55.0224 13.6506 54.8456 13.6875 54.6671 13.686C54.4898 13.687 54.3143 13.6512 54.1513 13.5808C53.995 13.5097 53.8526 13.4106 53.7312 13.2884C53.6082 13.1664 53.5098 13.0214 53.4415 12.8615C53.3727 12.693 53.3401 12.5116 53.3459 12.3294C53.3448 12.2099 53.3604 12.0908 53.3922 11.9757C53.4238 11.863 53.4696 11.7549 53.5284 11.654C53.5855 11.5552 53.6557 11.4648 53.737 11.3851C53.8176 11.3036 53.9081 11.2329 54.0065 11.1746C54.1062 11.1154 54.2134 11.0702 54.3252 11.0401C54.4388 11.0119 54.5559 11.0001 54.6729 11.005ZM54.6729 13.4609C54.8193 13.4612 54.9642 13.4313 55.0988 13.3732C55.2306 13.3166 55.3505 13.2352 55.4522 13.1335C55.5527 13.0299 55.6342 12.9091 55.6927 12.7768C55.7542 12.636 55.7839 12.4832 55.7796 12.3294C55.7805 12.1826 55.7509 12.0372 55.6927 11.9026C55.6345 11.7708 55.5541 11.6501 55.4551 11.5459C55.3527 11.4442 55.233 11.362 55.1017 11.3032C54.9642 11.2445 54.8164 11.2143 54.6671 11.2143C54.5178 11.2143 54.37 11.2445 54.2325 11.3032C54.1018 11.3616 53.9829 11.4439 53.8819 11.5459C53.7801 11.6478 53.6994 11.769 53.6443 11.9026C53.5861 12.0372 53.5565 12.1826 53.5574 12.3294C53.5568 12.4781 53.5864 12.6254 53.6443 12.7621C53.7015 12.8953 53.7831 13.0163 53.8848 13.1188C53.9854 13.2227 54.1055 13.3052 54.2382 13.3615C54.3736 13.425 54.5207 13.4589 54.67 13.4609H54.6729ZM55.2755 13.0838H55.0089L54.8959 12.7709C54.8759 12.6854 54.8271 12.6096 54.758 12.5563C54.6888 12.503 54.6034 12.4755 54.5164 12.4785H54.331V13.0633H54.1021V11.6424H54.6381C55.0244 11.6424 55.2176 11.7739 55.2176 12.0371C55.2243 12.0896 55.2197 12.1429 55.2039 12.1935C55.1882 12.244 55.1618 12.2905 55.1265 12.3297C55.0913 12.3689 55.048 12.3999 54.9997 12.4205C54.9513 12.4412 54.8991 12.451 54.8467 12.4493C54.913 12.468 54.9739 12.5025 55.0243 12.5498C55.0747 12.5971 55.1131 12.6559 55.1364 12.7212L55.2755 13.0838ZM54.331 12.2826H54.6207C54.8496 12.2826 54.9626 12.2096 54.9626 12.0634C54.9626 11.9172 54.8438 11.8382 54.6091 11.8382H54.3194L54.331 12.2826Z" fill="black"/>
</g>
<defs>
<clipPath id="clip0_158_447">
<rect width="56" height="35" fill="white" transform="translate(0 0.0820312)"/>
</clipPath>
</defs>
</svg>
