<svg width="44" height="45" viewBox="0 0 44 45" fill="none" xmlns="http://www.w3.org/2000/svg">
<path d="M16.0991 0.453227C15.8711 0.60632 15.6778 0.805406 15.5314 1.03769C15.385 1.26997 15.2888 1.5303 15.249 1.80197L16.7602 1.57151L16.8962 2.55757L17.8898 2.13443V3.09404L18.8986 2.66713L19.0194 3.64185L19.8393 3.21116L21.2107 3.89497L18.6379 4.80925L21.3618 4.55234L20.44 5.76885L19.4388 5.69329L19.8166 6.6529H18.6454L19.1328 7.55584H17.973L18.3508 8.53434L16.8962 8.95747C17.0552 9.18544 17.2587 9.37892 17.4944 9.5263C17.73 9.67367 17.9931 9.7719 18.2676 9.81508C19.4237 9.93597 20.5344 9.09348 20.5344 9.09348L22.9712 5.91997L22.5934 5.25127L23.0846 4.28033L24.5958 3.94786L24.4333 3.19227L22.9221 3.52851L22.0192 2.74647L22.0456 1.99087L18.4339 0.158545C18.4339 0.158545 17.0851 -0.143695 16.0991 0.453227Z" fill="#FFE600"/>
<path d="M11.3147 6.27794L10.8425 6.00215C10.4885 5.78806 10.094 5.6497 9.6838 5.59581C9.27364 5.54192 8.85675 5.57367 8.45948 5.68905C8.0622 5.80444 7.69316 6.00095 7.37568 6.26617C7.0582 6.5314 6.79916 6.85958 6.61493 7.22999L5.96134 8.50695C5.15662 10.0824 5.58354 11.9978 6.92473 12.7874L7.34031 13.0292C8.68149 13.815 10.5554 13.2597 11.5301 11.7787L12.3197 10.5811C12.5504 10.2368 12.7078 9.84875 12.7822 9.44106C12.8566 9.03337 12.8464 8.61473 12.7521 8.21116C12.6579 7.8076 12.4816 7.42772 12.2344 7.09515C11.9871 6.76258 11.6741 6.48441 11.3147 6.27794ZM11.3147 10.8531C10.7065 11.892 9.28597 12.1867 8.14124 11.5142L7.78611 11.3064C6.65271 10.634 6.21069 9.24366 6.81894 8.20849L7.31386 7.36978C7.92212 6.33461 9.34263 6.03993 10.4874 6.71241L10.8425 6.9202C11.9759 7.59268 12.4179 8.9792 11.8097 10.0144L11.3147 10.8531Z" fill="#FFE600"/>
<path d="M8.66982 13.5302C8.17007 13.5319 7.67873 13.4015 7.24553 13.1524L6.83373 12.9106C5.42832 12.0832 4.97117 10.0733 5.80989 8.43365L6.46348 7.15669C6.72438 6.63587 7.1244 6.19746 7.6192 5.89005C8.11399 5.58264 8.68423 5.41822 9.26674 5.41504C9.84138 5.41847 10.4047 5.57496 10.8988 5.8684L11.3711 6.14419C11.748 6.36137 12.0766 6.6534 12.3365 7.0023C12.5964 7.35121 12.7821 7.7496 12.8823 8.17297C12.9791 8.59664 12.9885 9.03561 12.9099 9.46304C12.8313 9.89046 12.6663 10.2974 12.4251 10.6589L11.6355 11.8565C11.3155 12.3565 10.8778 12.7704 10.3608 13.0622C9.84384 13.3539 9.26325 13.5146 8.66982 13.5302ZM9.26674 5.7135C8.73906 5.71689 8.22262 5.8662 7.77455 6.14491C7.32647 6.42363 6.96423 6.82087 6.72793 7.2927L6.07435 8.56966C5.31875 10.0809 5.69655 11.9056 6.98106 12.6537L7.39664 12.8954C7.7838 13.1182 8.22315 13.2343 8.66982 13.2317C9.21421 13.2169 9.74663 13.0686 10.2203 12.7998C10.6939 12.531 11.0943 12.15 11.3862 11.6903L12.1758 10.4964C12.397 10.1674 12.5481 9.79631 12.6196 9.40631C12.6911 9.01631 12.6815 8.61576 12.5914 8.22964C12.5016 7.84515 12.3334 7.48331 12.0975 7.16674C11.8615 6.85017 11.5628 6.58566 11.22 6.38976L10.7477 6.11397C10.3026 5.85112 9.795 5.71281 9.27807 5.7135H9.26674ZM9.4443 12.019C8.95918 12.0182 8.48308 11.8878 8.06534 11.6412L7.71021 11.4334C6.49748 10.7193 6.04035 9.23836 6.69016 8.13141L7.18508 7.2927C7.39226 6.95056 7.68627 6.66935 8.03728 6.47759C8.38829 6.28582 8.78379 6.19035 9.18362 6.20086C9.66862 6.20249 10.1445 6.33286 10.5626 6.57866L10.9139 6.78645C12.1267 7.50049 12.5876 8.97768 11.9378 10.0846L11.4429 10.9233C11.2371 11.2645 10.9451 11.5454 10.5962 11.7377C10.2473 11.9301 9.85394 12.0271 9.45564 12.019H9.4443ZM9.18362 6.49554C8.83537 6.48581 8.4907 6.56799 8.18429 6.73379C7.87788 6.8996 7.62055 7.14318 7.4382 7.44004L6.94706 8.27875C6.38036 9.24214 6.78838 10.5455 7.86133 11.1727L8.21646 11.3805C8.58798 11.6015 9.01198 11.719 9.4443 11.7205C9.79242 11.7299 10.1369 11.6472 10.4427 11.4807C10.7486 11.3141 11.005 11.0697 11.186 10.7722L11.6809 9.93351C12.2476 8.97012 11.8358 7.66672 10.7666 7.04335L10.4115 6.83556C10.0431 6.61677 9.62338 6.49945 9.19497 6.49554H9.18362Z" fill="#FFE600" stroke="#FFE600" stroke-width="0.5"/>
<path d="M7.24151 22.5499C7.24151 22.5235 7.21128 22.4857 7.13572 22.4404C7.01398 22.363 6.90909 22.2619 6.8273 22.1431C6.74551 22.0244 6.6885 21.8903 6.65969 21.749C6.59921 20.9763 6.6501 20.1989 6.81081 19.4406C7.0017 18.7048 7.29416 17.999 7.67975 17.3438C7.94421 16.9245 8.54113 16.9661 8.56002 16.8792C8.5978 16.7167 7.19239 16.2482 5.4054 15.8289C3.58441 15.4058 2.07701 15.198 2.03923 15.368C2.02034 15.4398 2.56814 15.6778 2.62103 16.1689C2.67837 16.9273 2.63134 17.6901 2.48124 18.4357C2.28899 19.1866 1.99136 19.9066 1.5972 20.574C1.50958 20.6878 1.39978 20.7827 1.27445 20.8528C1.14912 20.9229 1.01087 20.9669 0.86805 20.982C0.777378 20.982 0.728259 21.0085 0.720703 21.0349C0.720703 21.0349 0.720703 21.0349 0.720703 21.0538C0.732519 21.066 0.745143 21.0774 0.758485 21.0878L0.822716 21.1294L0.913384 21.1785L1.03428 21.2314L1.1854 21.2918L1.36296 21.3598C2.18555 21.6423 3.023 21.8794 3.87154 22.0701C3.88404 22.0723 3.89682 22.0723 3.90932 22.0701H3.94332H4L4.26445 22.1268H4.32112L4.58937 22.1834H4.63092L4.90293 22.2401H4.93315L5.20517 22.2892H5.23162L5.4923 22.3383L5.74543 22.3837H5.77187L5.99478 22.4215H6.03255L6.22901 22.4479H6.27813L6.44058 22.4706H6.50102H6.62947H6.70503H7.05639H7.13572C7.18484 22.4706 7.21128 22.4479 7.21506 22.429L7.24151 22.5499Z" fill="#FFE600" stroke="#FFE600" stroke-width="0.5"/>
<path d="M43.6952 24.4756C43.8435 21.5388 43.347 18.6051 42.2407 15.8807C40.7077 12.0686 38.0526 8.81242 34.6272 6.54345C31.2019 4.27448 27.1679 3.09988 23.0599 3.17529L22.7161 4.78849C26.5598 4.66446 30.3493 5.72031 33.575 7.81407C36.8007 9.90783 39.308 12.9391 40.7597 16.5002C41.7802 19.0152 42.2368 21.7234 42.0971 24.434C41.914 28.0093 40.7148 31.4581 38.6403 34.3758C36.5658 37.2934 33.7022 39.5588 30.3854 40.906C28.1023 41.8343 25.6576 42.2999 23.1932 42.2759C20.7288 42.2519 18.2936 41.7388 16.029 40.7662C13.7602 39.8111 11.7035 38.4155 9.9778 36.66C8.25214 34.9045 6.89189 32.8241 5.97583 30.5392C4.95497 28.0243 4.49843 25.316 4.63843 22.6055C4.82618 18.9488 6.07898 15.4268 8.24262 12.4729L6.89011 11.6078C4.57877 14.8002 3.24163 18.5938 3.04035 22.5299C2.89916 25.4607 3.4021 28.3867 4.51376 31.1022C6.53591 36.1017 10.4591 40.0947 15.4221 42.2047C20.3852 44.3147 25.9827 44.3694 30.9861 42.3568C34.5853 40.8929 37.6925 38.4332 39.9435 35.2662C42.1945 32.0991 43.4959 28.356 43.6952 24.4756Z" fill="#FFE600" stroke="#FFE600" stroke-width="0.5"/>
<path d="M22.23 3.17121L22.2207 4.53125L23.8376 4.54227L23.8469 3.18223L22.23 3.17121Z" fill="#FFE600" stroke="#FFE600" stroke-width="0.5"/>
</svg>
