<svg width="30" height="28" viewBox="0 0 30 28" fill="none" xmlns="http://www.w3.org/2000/svg">
<path d="M20.2908 1.32327V5.06937C20.2908 6.17394 21.1862 7.06937 22.2908 7.06937H25.8112L23.0545 3.40602L20.2908 1.32327Z" fill="black"/>
<path d="M23.2236 27.3418H7.22363C5.84292 27.3418 4.72363 26.2225 4.72363 24.8418V3.8418C4.72363 2.46108 5.84292 1.3418 7.22363 1.3418H20.8843L25.7236 6.58476V24.8418C25.7236 26.2225 24.6043 27.3418 23.2236 27.3418Z" stroke="black"/>
<rect x="0.65625" y="12.0137" width="29" height="9.90503" rx="2" fill="black"/>
<path d="M7.00293 17.4541H4.6543V18.6895H7.41797V19.8223H3.23828V14.1338H7.42285V15.2764H4.6543V16.3164H7.00293V17.4541ZM10.6549 15.9697L11.6607 14.1338H13.2916L11.5436 16.9561L13.4283 19.8223H11.7584L10.6744 17.957L9.62461 19.8223H7.99375L9.79063 16.9561L8.04258 14.1338H9.65879L10.6549 15.9697ZM18.5629 17.874C18.5238 18.4958 18.2781 18.9889 17.8256 19.3535C17.3764 19.7181 16.7839 19.9004 16.0482 19.9004C15.2572 19.9004 14.6339 19.6595 14.1781 19.1777C13.7257 18.6927 13.4929 18.0254 13.4799 17.1758V16.8535C13.4799 16.0039 13.7094 15.3252 14.1684 14.8174C14.6306 14.3096 15.254 14.0557 16.0385 14.0557C16.7742 14.0557 17.3633 14.2396 17.8061 14.6074C18.2488 14.9753 18.5027 15.4831 18.5678 16.1309H17.1566C17.1241 15.5059 16.7514 15.1934 16.0385 15.1934C15.2963 15.1934 14.9138 15.7126 14.891 16.751V17.1123C14.891 17.695 14.9805 18.1165 15.1596 18.377C15.3419 18.6374 15.6381 18.7676 16.0482 18.7676C16.4031 18.7676 16.67 18.696 16.849 18.5527C17.0313 18.4095 17.1306 18.1833 17.1469 17.874H18.5629ZM23.06 17.4541H20.7113V18.6895H23.475V19.8223H19.2953V14.1338H23.4799V15.2764H20.7113V16.3164H23.06V17.4541ZM25.5355 18.6895H28.1283V19.8223H24.1195V14.1338H25.5355V18.6895Z" fill="white"/>
</svg>
