<svg width="30" height="28" viewBox="0 0 30 28" fill="none" xmlns="http://www.w3.org/2000/svg">
<path d="M20.2908 1.32327V5.06937C20.2908 6.17394 21.1862 7.06937 22.2908 7.06937H25.8112L23.0545 3.40602L20.2908 1.32327Z" fill="black"/>
<path d="M23.2236 27.3418H7.22363C5.84292 27.3418 4.72363 26.2225 4.72363 24.8418V3.8418C4.72363 2.46108 5.84292 1.3418 7.22363 1.3418H20.8843L25.7236 6.58476V24.8418C25.7236 26.2225 24.6043 27.3418 23.2236 27.3418Z" stroke="black"/>
<rect x="0.65625" y="12.0137" width="29" height="9.90503" rx="2" fill="black"/>
<path d="M9.49805 17.9521V19.8223H8.08203V14.1338H10.5088C10.971 14.1338 11.3812 14.2168 11.7393 14.3828C12.0973 14.5456 12.3724 14.7783 12.5645 15.0811C12.7598 15.3838 12.8574 15.7256 12.8574 16.1064C12.8574 16.6696 12.6442 17.1188 12.2178 17.4541C11.7913 17.7861 11.2135 17.9521 10.4844 17.9521H9.49805ZM9.49805 16.8145H10.5088C10.8083 16.8145 11.0394 16.7526 11.2021 16.6289C11.3682 16.5052 11.4512 16.3343 11.4512 16.1162C11.4512 15.8656 11.3682 15.6637 11.2021 15.5107C11.0394 15.3577 10.8132 15.2796 10.5234 15.2764H9.49805V16.8145ZM13.668 19.8223V14.1338H15.6113C16.1452 14.1338 16.627 14.2477 17.0566 14.4756C17.4863 14.7035 17.8216 15.0241 18.0625 15.4375C18.3066 15.8477 18.432 16.3099 18.4385 16.8242V17.0928C18.4385 17.6104 18.318 18.0791 18.0771 18.499C17.8395 18.9157 17.5059 19.2412 17.0762 19.4756C16.6497 19.7067 16.1663 19.8223 15.626 19.8223H13.668ZM15.084 15.2764V18.6895H15.626C16.1077 18.6895 16.4577 18.5674 16.6758 18.3232C16.8971 18.0758 17.0111 17.6868 17.0176 17.1562V16.8633C17.0176 16.3197 16.9085 15.9225 16.6904 15.6719C16.4756 15.418 16.137 15.2861 15.6748 15.2764H15.084ZM23.0479 17.6055H20.6602V19.8223H19.2441V14.1338H23.3066V15.2764H20.6602V16.4678H23.0479V17.6055Z" fill="white"/>
</svg>
