<svg width="23" height="28" viewBox="0 0 23 28" fill="none" xmlns="http://www.w3.org/2000/svg">
<path d="M5.75879 15.9707V18.9629H3.49316V9.86133H7.37598C8.11556 9.86133 8.77181 9.99414 9.34473 10.2598C9.91764 10.5202 10.3577 10.8926 10.665 11.377C10.9775 11.8613 11.1338 12.4082 11.1338 13.0176C11.1338 13.9186 10.7926 14.6374 10.1104 15.1738C9.42806 15.7051 8.50358 15.9707 7.33691 15.9707H5.75879ZM5.75879 14.1504H7.37598C7.85514 14.1504 8.22493 14.0514 8.48535 13.8535C8.75098 13.6556 8.88379 13.3822 8.88379 13.0332C8.88379 12.6322 8.75098 12.3092 8.48535 12.0645C8.22493 11.8197 7.86296 11.6947 7.39941 11.6895H5.75879V14.1504ZM15.7204 14.1973L17.4391 9.86133H19.8375L16.6188 16.8926L16.236 17.627C15.7099 18.554 14.9625 19.0488 13.9938 19.1113L13.525 19.1191L12.9079 19.0957L12.8922 17.2754C13.0172 17.2962 13.2256 17.3066 13.5172 17.3066C13.7776 17.3066 13.999 17.2546 14.1813 17.1504C14.3636 17.0462 14.5224 16.8639 14.6579 16.6035L11.2282 9.86133H13.6813L15.7204 14.1973Z" fill="#0F0F0F"/>
<path d="M16.2927 1.32327V5.06937C16.2927 6.17394 17.1882 7.06937 18.2927 7.06937H21.8131L19.0565 3.40602L16.2927 1.32327Z" fill="black"/>
<path d="M19.2256 27.3418H3.22559C1.84487 27.3418 0.725586 26.2225 0.725586 24.8418V3.8418C0.725586 2.46108 1.84487 1.3418 3.22559 1.3418H16.8863L21.7256 6.58476V24.8418C21.7256 26.2225 20.6063 27.3418 19.2256 27.3418Z" stroke="black"/>
</svg>
