<svg width="23" height="28" viewBox="0 0 23 28" fill="none" xmlns="http://www.w3.org/2000/svg">
<path d="M16.2517 1.32327V5.06937C16.2517 6.17394 17.1471 7.06937 18.2517 7.06937H21.7721L19.0155 3.40602L16.2517 1.32327Z" fill="black"/>
<path d="M19.1846 27.3418H3.18457C1.80386 27.3418 0.68457 26.2225 0.68457 24.8418V3.8418C0.68457 2.46108 1.80386 1.3418 3.18457 1.3418H16.8453L21.6846 6.58476V24.8418C21.6846 26.2225 20.5653 27.3418 19.1846 27.3418Z" stroke="black"/>
<path d="M10.7441 11.6895H7.79102V18.9629H5.52539V11.6895H2.62695V9.86133H10.7441V11.6895ZM16.5645 12.5332C16.5645 12.2155 16.4395 11.9733 16.1895 11.8066C15.9447 11.6348 15.5957 11.5488 15.1426 11.5488C14.7728 11.5488 14.4733 11.6191 14.2441 11.7598C14.015 11.9004 13.9004 12.0879 13.9004 12.3223H11.6348C11.6348 11.5306 11.9577 10.903 12.6035 10.4395C13.2493 9.9707 14.1009 9.73633 15.1582 9.73633C16.3145 9.73633 17.2129 9.95508 17.8535 10.3926C18.4993 10.8249 18.8223 11.429 18.8223 12.2051C18.8223 12.6686 18.6868 13.0827 18.416 13.4473C18.1452 13.8118 17.778 14.0983 17.3145 14.3066C17.8561 14.4889 18.2676 14.765 18.5488 15.1348C18.8301 15.5046 18.9707 15.9342 18.9707 16.4238C18.9707 17.252 18.6296 17.903 17.9473 18.377C17.2702 18.8509 16.3405 19.0879 15.1582 19.0879C14.0592 19.0879 13.1738 18.8431 12.502 18.3535C11.8353 17.8639 11.502 17.1973 11.502 16.3535H13.7676C13.778 16.64 13.9056 16.8691 14.1504 17.041C14.3952 17.2077 14.7415 17.291 15.1895 17.291C15.6842 17.291 16.0618 17.1973 16.3223 17.0098C16.5827 16.8171 16.7129 16.5462 16.7129 16.1973C16.7129 15.4629 16.2025 15.0879 15.1816 15.0723H14.0332V13.5645H15.2598C16.1296 13.5436 16.5645 13.1999 16.5645 12.5332Z" fill="#0F0F0F"/>
</svg>
